<svg width="128" height="128" viewBox="0 0 128 128" fill="none" xmlns="http://www.w3.org/2000/svg">
<g clip-path="url(#clip0_11_15)">
<path d="M53.1462 0.217863C17.6178 6.90654 -5.64351 40.5182 1.19181 75.2894C8.0259 110.062 42.3658 132.827 77.8941 126.138C93.6329 123.177 106.956 114.923 116.33 103.632C81.2827 109.509 47.7121 86.902 40.9633 52.5653C37.1555 33.1977 42.696 14.1968 54.4831 0C54.0366 0.0750498 53.5927 0.13435 53.1462 0.217863Z" fill="url(#paint0_linear_11_15)"/>
<path d="M101.084 31.8022L89.105 38.6978L101.983 43.8081L104.982 57.0899L113.929 46.6827L127.761 47.9949L120.412 36.4501L125.963 23.9805L112.474 27.2534L102.071 18.2335L101.084 31.8022Z" fill="url(#paint1_linear_11_15)"/>
<path d="M92.1843 74.297L84.4351 78.721L92.7372 82.0496L94.6431 90.6314L100.443 83.9305L109.37 84.8093L104.652 77.3387L108.264 69.3004L99.5479 71.3847L92.8538 65.5397L92.1843 74.297Z" fill="url(#paint2_linear_11_15)"/>
<path d="M65.5628 16.7592L57.8147 21.1857L66.1168 24.5142L68.0226 33.0949L73.8216 26.3952L82.7494 27.2728L78.0314 19.8034L81.6425 11.7663L72.9274 13.8506L66.2318 8.00317L65.5628 16.7592Z" fill="url(#paint3_linear_11_15)"/>
</g>
<defs>
<linearGradient id="paint0_linear_11_15" x1="-0.000381805" y1="63.6525" x2="116.33" y2="63.6525" gradientUnits="userSpaceOnUse">
<stop stop-color="#FABB41"/>
<stop offset="0.357364" stop-color="#FABB41"/>
<stop offset="1" stop-color="#F7821A"/>
</linearGradient>
<linearGradient id="paint1_linear_11_15" x1="89.101" y1="37.7108" x2="127.725" y2="37.5743" gradientUnits="userSpaceOnUse">
<stop stop-color="#FABB41"/>
<stop offset="0.357364" stop-color="#FABB41"/>
<stop offset="1" stop-color="#F7821A"/>
</linearGradient>
<linearGradient id="paint2_linear_11_15" x1="84.4343" y1="78.0849" x2="109.37" y2="78.0849" gradientUnits="userSpaceOnUse">
<stop stop-color="#FABB41"/>
<stop offset="0.357364" stop-color="#FABB41"/>
<stop offset="1" stop-color="#F7821A"/>
</linearGradient>
<linearGradient id="paint3_linear_11_15" x1="57.814" y1="20.5491" x2="82.7494" y2="20.5491" gradientUnits="userSpaceOnUse">
<stop stop-color="#FABB41"/>
<stop offset="0.357364" stop-color="#FABB41"/>
<stop offset="1" stop-color="#F7821A"/>
</linearGradient>
<clipPath id="clip0_11_15">
<rect width="128" height="128" fill="white"/>
</clipPath>
</defs>
</svg>
