<svg width="236" height="128" viewBox="0 0 236 128" fill="none" xmlns="http://www.w3.org/2000/svg">
<path d="M148.84 18.7853C146.972 18.2186 144.991 17.9106 142.935 17.9106C131.712 17.9106 122.612 27.0106 122.612 38.2346C122.612 39.5719 122.744 40.8773 122.992 42.1426C112.627 42.908 104.455 51.552 104.455 62.112C104.455 73.1733 113.423 82.14 124.484 82.14C124.517 82.14 124.552 82.1387 124.587 82.1387C124.603 82.1387 124.619 82.14 124.635 82.14H210.013C210.208 82.14 210.399 82.1253 210.588 82.1026C224.247 81.3826 235.1 70.0813 235.1 56.244C235.1 42.0773 223.724 30.576 209.608 30.3586C208.856 13.4653 194.928 -1.52588e-05 177.851 -1.52588e-05C164.928 -1.52588e-05 153.813 7.71464 148.84 18.7853Z" fill="url(#paint0_radial_1_136)"/>
<path d="M38.4827 49.7813C17.1747 50.1093 0 67.4746 0 88.8586C0 109.751 16.3827 126.811 37.0014 127.897C37.288 127.932 37.5773 127.955 37.872 127.955H166.761C166.788 127.955 166.812 127.951 166.837 127.951C166.888 127.951 166.939 127.955 166.991 127.955C183.689 127.955 197.228 114.417 197.228 97.716C197.228 81.776 184.888 68.7253 169.243 67.5719C169.616 65.6626 169.816 63.6906 169.816 61.6706C169.816 44.7266 156.079 30.9893 139.133 30.9893C136.032 30.9893 133.041 31.4533 130.22 32.3093C122.712 15.5973 105.935 3.95067 86.4254 3.95067C60.644 3.95067 39.616 24.28 38.4827 49.7813Z" fill="url(#paint1_radial_1_136)"/>
<defs>
<radialGradient id="paint0_radial_1_136" cx="0" cy="0" r="1" gradientUnits="userSpaceOnUse" gradientTransform="translate(179.105 -2.56428) rotate(128.019) scale(56.8613 56.8613)">
<stop stop-color="#D1CBC3"/>
<stop offset="0.243404" stop-color="#D1CBC3"/>
<stop offset="1" stop-color="#AAA49D"/>
</radialGradient>
<radialGradient id="paint1_radial_1_136" cx="0" cy="0" r="1" gradientUnits="userSpaceOnUse" gradientTransform="translate(69.9418 58.3172) rotate(30.9302) scale(112.094 112.094)">
<stop stop-color="#FEFEFE"/>
<stop offset="0.156757" stop-color="#FEFEFE"/>
<stop offset="0.362006" stop-color="#FEFEFE"/>
<stop offset="1" stop-color="#D1CBC3"/>
</radialGradient>
</defs>
</svg>
