<svg width="128" height="128" viewBox="0 0 128 128" fill="none" xmlns="http://www.w3.org/2000/svg">
<g clip-path="url(#clip0_11_24)">
<path d="M85.7432 14.6367C84.8281 14.1952 83.8577 13.9552 82.8505 13.9552C77.3526 13.9552 72.8947 21.0455 72.8947 29.7908C72.8947 30.8328 72.9594 31.8499 73.0808 32.8357C68.0033 33.4321 64 40.1671 64 48.395C64 57.0135 68.3932 64 73.8117 64C73.8279 64 73.8451 63.999 73.8622 63.999C73.87 63.999 73.8779 64 73.8857 64H115.71C115.806 64 115.9 63.9885 115.992 63.9709C122.683 63.4099 128 54.6044 128 43.8229C128 32.7849 122.427 23.8235 115.512 23.6541C115.144 10.4916 108.321 0 99.955 0C93.6243 0 88.1794 6.01093 85.7432 14.6367Z" fill="url(#paint0_radial_11_24)"/>
<path d="M24.9751 47.3074C11.1463 47.646 0 65.5708 0 87.6438C0 109.209 10.6323 126.819 24.0137 127.94C24.1997 127.976 24.3875 128 24.5787 128H108.227C108.245 128 108.26 127.996 108.276 127.996C108.309 127.996 108.343 128 108.376 128C119.213 128 128 114.026 128 96.7866C128 80.333 119.991 66.8618 109.838 65.6712C110.08 63.7004 110.21 61.6649 110.21 59.5798C110.21 42.0898 101.295 27.9099 90.2966 27.9099C88.2841 27.9099 86.343 28.3888 84.5121 29.2724C79.6395 12.0219 68.7513 0 56.0897 0C39.3577 0 25.7106 20.9844 24.9751 47.3074Z" fill="url(#paint1_radial_11_24)"/>
</g>
<defs>
<radialGradient id="paint0_radial_11_24" cx="0" cy="0" r="1" gradientUnits="userSpaceOnUse" gradientTransform="translate(100.569 -1.99797) rotate(116.176) scale(38.8916 31.7314)">
<stop stop-color="#D1CBC3"/>
<stop offset="0.243404" stop-color="#D1CBC3"/>
<stop offset="1" stop-color="#AAA49D"/>
</radialGradient>
<radialGradient id="paint1_radial_11_24" cx="0" cy="0" r="1" gradientUnits="userSpaceOnUse" gradientTransform="translate(45.3919 56.1183) rotate(43.6223) scale(86.2037 97.6457)">
<stop stop-color="#FEFEFE"/>
<stop offset="0.156757" stop-color="#FEFEFE"/>
<stop offset="0.362006" stop-color="#FEFEFE"/>
<stop offset="1" stop-color="#D1CBC3"/>
</radialGradient>
<clipPath id="clip0_11_24">
<rect width="128" height="128" fill="white"/>
</clipPath>
</defs>
</svg>
