<svg width="128" height="128" viewBox="0 0 128 128" fill="none" xmlns="http://www.w3.org/2000/svg">
<g clip-path="url(#clip0_11_20)">
<path d="M81.1877 9.74136L69.7294 12.8382L70.7884 24.6656L64 34.4052L72.4115 42.7839L73.4705 54.6112L85.2966 55.6213L93.7068 64L103.415 57.1694L115.243 58.1795L118.291 46.703L128 39.8724L122.961 29.1217L126.009 17.6461L115.241 12.6495L110.202 1.89889L98.7432 4.99582L87.9762 0L81.1877 9.74136Z" fill="url(#paint0_linear_11_20)"/>
<path d="M77.5535 15.1271C68.2344 25.315 68.9385 41.128 79.1268 50.446C89.3151 59.7657 105.128 59.0614 114.447 48.8735C123.765 38.6848 123.061 22.8727 112.873 13.5538C108.076 9.16589 102.033 7 96.0069 7C89.2344 7.00088 82.4834 9.73653 77.5535 15.1271Z" fill="url(#paint1_linear_11_20)"/>
<path d="M24.9759 47.3058C11.1463 47.6458 0 65.5696 0 87.6464C0 109.209 10.6331 126.819 24.0145 127.942C24.2006 127.976 24.3875 128 24.5787 128H108.228C108.245 128 108.26 127.997 108.276 127.996C108.31 127.997 108.343 128 108.376 128C119.213 128 128 114.026 128 96.789C128 80.3335 119.992 66.8634 109.839 65.6715C110.08 63.7006 110.21 61.6637 110.21 59.5813C110.21 42.0895 101.295 27.9092 90.2979 27.9092C88.2847 27.9092 86.343 28.3896 84.5121 29.2717C79.6395 12.0195 68.7513 0 56.0896 0C39.3585 0 25.7114 20.9835 24.9759 47.3058Z" fill="url(#paint2_radial_11_20)"/>
</g>
<defs>
<linearGradient id="paint0_linear_11_20" x1="73.8127" y1="8.94142" x2="106.091" y2="42.7636" gradientUnits="userSpaceOnUse">
<stop stop-color="#FABB41"/>
<stop offset="0.357364" stop-color="#FABB41"/>
<stop offset="1" stop-color="#F7821A"/>
</linearGradient>
<linearGradient id="paint1_linear_11_20" x1="73.0522" y1="22.0634" x2="118.947" y2="41.9374" gradientUnits="userSpaceOnUse">
<stop stop-color="white"/>
<stop offset="0.459918" stop-color="#FFDF99"/>
<stop offset="1" stop-color="#FFDF99"/>
</linearGradient>
<radialGradient id="paint2_radial_11_20" cx="0" cy="0" r="1" gradientUnits="userSpaceOnUse" gradientTransform="translate(45.3923 56.1181) rotate(43.623) scale(86.2047 97.6469)">
<stop stop-color="#FEFEFE"/>
<stop offset="0.156757" stop-color="#FEFEFE"/>
<stop offset="0.684215" stop-color="#FEFEFE"/>
<stop offset="1" stop-color="#D1CBC3"/>
</radialGradient>
<clipPath id="clip0_11_20">
<rect width="128" height="128" fill="white"/>
</clipPath>
</defs>
</svg>
