<svg width="198" height="148" viewBox="0 0 198 148" fill="none" xmlns="http://www.w3.org/2000/svg">
<path d="M38.4827 69.236C17.176 69.564 0 86.9279 0 108.315C0 129.204 16.3853 146.267 37.0053 147.352C37.2907 147.387 37.58 147.409 37.8733 147.409H166.764C166.788 147.409 166.813 147.405 166.839 147.405C166.891 147.405 166.941 147.409 166.991 147.409C183.692 147.409 197.229 133.871 197.229 117.172C197.229 101.231 184.891 88.1813 169.245 87.028C169.617 85.1173 169.817 83.1466 169.817 81.1266C169.817 64.1813 156.081 50.4453 139.136 50.4453C136.035 50.4453 133.043 50.9093 130.221 51.7653C122.713 35.052 105.936 23.4066 86.4267 23.4066C60.6467 23.4066 39.62 43.7346 38.4827 69.236Z" fill="url(#paint0_radial_1_301)"/>
<path d="M50.6521 0.16935C23.5734 5.37868 5.84405 31.5547 11.0534 58.6333C16.2627 85.712 42.4374 103.44 69.516 98.232C81.5134 95.9253 91.6667 89.4973 98.812 80.7053C72.0987 85.2827 46.5107 67.6773 41.368 40.9373C38.4667 25.8533 42.688 11.0547 51.672 0C51.332 0.0586624 50.9934 0.105347 50.6521 0.16935Z" fill="url(#paint1_linear_1_301)"/>
<defs>
<radialGradient id="paint0_radial_1_301" cx="0" cy="0" r="1" gradientUnits="userSpaceOnUse" gradientTransform="translate(69.9434 77.7723) rotate(30.9302) scale(112.094 112.094)">
<stop stop-color="#FEFEFE"/>
<stop offset="0.156757" stop-color="#FEFEFE"/>
<stop offset="0.362006" stop-color="#FEFEFE"/>
<stop offset="1" stop-color="#D1CBC3"/>
</radialGradient>
<linearGradient id="paint1_linear_1_301" x1="10.1457" y1="49.5704" x2="98.8117" y2="49.5704" gradientUnits="userSpaceOnUse">
<stop stop-color="#FABB41"/>
<stop offset="0.357364" stop-color="#FABB41"/>
<stop offset="1" stop-color="#F7821A"/>
</linearGradient>
</defs>
</svg>
