<svg width="206" height="145" viewBox="0 0 206 145" fill="none" xmlns="http://www.w3.org/2000/svg">
<path d="M129.96 15.6227L111.577 20.5893L113.276 39.5574L102.385 55.1773L115.88 68.6147L117.579 87.5827L136.552 89.2027L150.045 102.64L165.621 91.6854L184.596 93.3053L189.487 74.9L205.063 63.9454L196.979 46.704L201.869 28.3L184.593 20.2867L176.509 3.04533L158.125 8.01204L140.851 -7.62939e-06L129.96 15.6227Z" fill="url(#paint0_linear_1_211)"/>
<path d="M124.428 24.6266C109.644 40.7893 110.761 65.876 126.924 80.6586C143.087 95.444 168.173 94.3267 182.957 78.164C197.74 62 196.623 36.9146 180.46 22.1306C172.849 15.1693 163.263 11.7332 153.703 11.7332C142.959 11.7346 132.249 16.0746 124.428 24.6266Z" fill="url(#paint1_linear_1_211)"/>
<path d="M38.484 66.5226C17.1747 66.852 0 84.2159 0 105.603C0 126.492 16.384 143.552 37.0026 144.64C37.2893 144.673 37.5773 144.696 37.872 144.696H166.763C166.788 144.696 166.812 144.693 166.837 144.692C166.889 144.693 166.94 144.696 166.991 144.696C183.689 144.696 197.228 131.159 197.228 114.46C197.228 98.5186 184.889 85.4693 169.244 84.3146C169.616 82.4053 169.817 80.432 169.817 78.4146C169.817 61.4693 156.08 47.7319 139.135 47.7319C136.033 47.7319 133.041 48.1973 130.22 49.0519C122.712 32.3386 105.935 20.6946 86.4253 20.6946C60.6453 20.6946 39.6173 41.0226 38.484 66.5226Z" fill="url(#paint2_radial_1_211)"/>
<defs>
<linearGradient id="paint0_linear_1_211" x1="118.128" y1="14.3398" x2="169.894" y2="68.6013" gradientUnits="userSpaceOnUse">
<stop stop-color="#FABB41"/>
<stop offset="0.357364" stop-color="#FABB41"/>
<stop offset="1" stop-color="#F7821A"/>
</linearGradient>
<linearGradient id="paint1_linear_1_211" x1="117.287" y1="35.6308" x2="190.097" y2="67.159" gradientUnits="userSpaceOnUse">
<stop stop-color="white"/>
<stop offset="0.459918" stop-color="#FFDF99"/>
<stop offset="1" stop-color="#FFDF99"/>
</linearGradient>
<radialGradient id="paint2_radial_1_211" cx="0" cy="0" r="1" gradientUnits="userSpaceOnUse" gradientTransform="translate(69.9424 75.0596) rotate(30.9302) scale(112.094 112.094)">
<stop stop-color="#FEFEFE"/>
<stop offset="0.156757" stop-color="#FEFEFE"/>
<stop offset="0.684215" stop-color="#FEFEFE"/>
<stop offset="1" stop-color="#D1CBC3"/>
</radialGradient>
</defs>
</svg>
