<svg width="128" height="128" viewBox="0 0 128 128" fill="none" xmlns="http://www.w3.org/2000/svg">
<g clip-path="url(#clip0_11_34)">
<path d="M24.975 47.1235C11.1471 47.4608 0 65.315 0 87.306C0 108.785 10.6339 126.33 24.0161 127.445C24.2014 127.481 24.3891 127.504 24.5795 127.504H108.228C108.244 127.504 108.26 127.5 108.277 127.5C108.311 127.5 108.343 127.504 108.376 127.504C119.215 127.504 128 113.584 128 96.4131C128 80.0219 119.993 66.6038 109.839 65.4179C110.08 63.4532 110.21 61.4269 110.21 59.3499C110.21 41.9261 101.295 27.8022 90.2981 27.8022C88.2856 27.8022 86.3438 28.2793 84.5124 29.1595C79.6397 11.9742 68.7516 0 56.0902 0C39.3592 0 25.7131 20.902 24.975 47.1235Z" fill="url(#paint0_radial_11_34)"/>
<path d="M29.238 0.604571C9.69255 3.9414 -3.10455 20.7084 0.655578 38.0536C4.41567 55.3988 23.3086 66.7544 42.8541 63.4184C51.5138 61.9409 58.8425 57.8234 64 52.1917C44.7183 55.1238 26.2488 43.8467 22.5367 26.7184C20.4426 17.0564 23.4895 7.57716 29.9742 0.496094C29.7288 0.53367 29.4844 0.563574 29.238 0.604571Z" fill="url(#paint1_linear_11_34)"/>
</g>
<defs>
<radialGradient id="paint0_radial_11_34" cx="0" cy="0" r="1" gradientUnits="userSpaceOnUse" gradientTransform="translate(45.3927 55.9008) rotate(43.5118) scale(86.0453 97.4474)">
<stop stop-color="#FEFEFE"/>
<stop offset="0.156757" stop-color="#FEFEFE"/>
<stop offset="0.362006" stop-color="#FEFEFE"/>
<stop offset="1" stop-color="#D1CBC3"/>
</radialGradient>
<linearGradient id="paint1_linear_11_34" x1="0.000397087" y1="32.2483" x2="63.9998" y2="32.2483" gradientUnits="userSpaceOnUse">
<stop stop-color="#FABB41"/>
<stop offset="0.357364" stop-color="#FABB41"/>
<stop offset="1" stop-color="#F7821A"/>
</linearGradient>
<clipPath id="clip0_11_34">
<rect width="128" height="128" fill="white"/>
</clipPath>
</defs>
</svg>
