<svg width="128" height="128" viewBox="0 0 128 128" fill="none" xmlns="http://www.w3.org/2000/svg">
<g clip-path="url(#clip0_11_37)">
<path d="M80.7268 11.5049C79.7136 11.1578 78.6392 10.9692 77.5246 10.9692C71.437 10.9692 66.5009 16.5416 66.5009 23.4164C66.5009 24.2354 66.573 25.0357 66.7075 25.8098C61.0858 26.2777 56.6525 31.5725 56.6525 38.0391C56.6525 44.8135 61.5165 50.3058 67.5167 50.3058C67.5346 50.3058 67.5536 50.3042 67.5715 50.3042C67.5802 50.3042 67.59 50.3058 67.5992 50.3058H113.905C114.011 50.3058 114.115 50.2968 114.217 50.2829C121.626 49.842 127.512 42.9206 127.512 34.4461C127.512 25.7706 121.34 18.7252 113.686 18.592C113.278 8.2467 105.724 0 96.4605 0C89.4525 0 83.424 4.72477 80.7268 11.5049Z" fill="url(#paint0_radial_11_37)"/>
<path d="M20.8712 30.4881C9.31504 30.6882 0 41.3234 0 54.4215C0 67.2147 8.88624 77.6648 20.0685 78.3293C20.2247 78.3507 20.3809 78.3636 20.5407 78.3636H90.4466C90.4613 78.3636 90.4743 78.3623 90.4879 78.3623C90.5155 78.3623 90.5421 78.3636 90.5703 78.3636C99.6279 78.3636 106.971 70.073 106.971 59.8461C106.971 50.083 100.278 42.091 91.7928 41.3838C91.9946 40.2145 92.1036 39.0076 92.1036 37.7705C92.1036 27.3924 84.653 18.9799 75.462 18.9799C73.7801 18.9799 72.1578 19.2642 70.6273 19.7876C66.5557 9.55247 57.4563 2.42041 46.8747 2.42041C32.8917 2.42041 21.4866 14.8701 20.8712 30.4881Z" fill="url(#paint1_radial_11_37)"/>
<path d="M22.4592 106.5C22.4592 109.778 24.8131 112.436 27.7159 112.436C30.6194 112.436 32.974 109.778 32.974 106.5C32.974 103.221 27.7159 93.0437 27.7159 93.0437C27.7159 93.0437 22.4592 103.221 22.4592 106.5Z" fill="url(#paint2_radial_11_37)"/>
<path d="M67.437 121.783C67.437 125.062 69.7915 127.72 72.6942 127.72C75.5981 127.72 77.952 125.062 77.952 121.783C77.952 118.505 72.6942 108.328 72.6942 108.328C72.6942 108.328 67.437 118.505 67.437 121.783Z" fill="url(#paint3_radial_11_37)"/>
<path d="M51.589 92.6481C51.589 94.3434 52.8068 95.7189 54.3094 95.7189C55.8107 95.7189 57.0278 94.3434 57.0278 92.6481C57.0278 90.9523 54.3094 85.6884 54.3094 85.6884C54.3094 85.6884 51.589 90.9523 51.589 92.6481Z" fill="url(#paint4_radial_11_37)"/>
<path d="M93.8885 97.9977C93.8885 99.6936 95.1062 101.068 96.6075 101.068C98.1104 101.068 99.328 99.6936 99.328 97.9977C99.328 96.3025 96.6075 91.0374 96.6075 91.0374C96.6075 91.0374 93.8885 96.3025 93.8885 97.9977Z" fill="url(#paint5_radial_11_37)"/>
</g>
<defs>
<radialGradient id="paint0_radial_11_37" cx="0" cy="0" r="1" gradientUnits="userSpaceOnUse" gradientTransform="translate(97.1417 -1.57046) rotate(124.698) scale(33.3688 32.1851)">
<stop stop-color="#D1CBC3"/>
<stop offset="0.243404" stop-color="#D1CBC3"/>
<stop offset="1" stop-color="#AAA49D"/>
</radialGradient>
<radialGradient id="paint1_radial_11_37" cx="0" cy="0" r="1" gradientUnits="userSpaceOnUse" gradientTransform="translate(37.9343 35.7158) rotate(34.0828) scale(62.967 66.2847)">
<stop stop-color="#FEFEFE"/>
<stop offset="0.156757" stop-color="#FEFEFE"/>
<stop offset="0.362006" stop-color="#FEFEFE"/>
<stop offset="1" stop-color="#D1CBC3"/>
</radialGradient>
<radialGradient id="paint2_radial_11_37" cx="0" cy="0" r="1" gradientUnits="userSpaceOnUse" gradientTransform="translate(27.7166 102.74) scale(7.11935 8.03907)">
<stop stop-color="#7DBAC7"/>
<stop offset="0.7114" stop-color="#7DBAC7"/>
<stop offset="1" stop-color="#59A8B2"/>
</radialGradient>
<radialGradient id="paint3_radial_11_37" cx="0" cy="0" r="1" gradientUnits="userSpaceOnUse" gradientTransform="translate(72.6948 118.024) scale(7.11935 8.03907)">
<stop stop-color="#7DBAC7"/>
<stop offset="0.7114" stop-color="#7DBAC7"/>
<stop offset="1" stop-color="#59A8B2"/>
</radialGradient>
<radialGradient id="paint4_radial_11_37" cx="0" cy="0" r="1" gradientUnits="userSpaceOnUse" gradientTransform="translate(54.3089 90.7036) scale(3.68241 4.15813)">
<stop stop-color="#7DBAC7"/>
<stop offset="0.7114" stop-color="#7DBAC7"/>
<stop offset="1" stop-color="#59A8B2"/>
</radialGradient>
<radialGradient id="paint5_radial_11_37" cx="0" cy="0" r="1" gradientUnits="userSpaceOnUse" gradientTransform="translate(96.608 96.0526) scale(3.68241 4.15814)">
<stop stop-color="#7DBAC7"/>
<stop offset="0.7114" stop-color="#7DBAC7"/>
<stop offset="1" stop-color="#59A8B2"/>
</radialGradient>
<clipPath id="clip0_11_37">
<rect width="128" height="128" fill="white"/>
</clipPath>
</defs>
</svg>
