<svg width="128" height="128" viewBox="0 0 128 128" fill="none" xmlns="http://www.w3.org/2000/svg">
<g clip-path="url(#clip0_11_5)">
<path d="M80.7273 13.5076C79.7136 13.1002 78.6392 12.8786 77.5252 12.8786C71.437 12.8786 66.5014 19.4225 66.5014 27.4946C66.5014 28.4553 66.5736 29.3949 66.7081 30.3049C61.0864 30.8543 56.6536 37.0711 56.6536 44.6639C56.6536 52.6181 61.5176 59.067 67.5168 59.067C67.5346 59.067 67.5536 59.0651 67.5726 59.0641C67.5813 59.0651 67.59 59.067 67.5992 59.067H113.905C114.012 59.067 114.115 59.0565 114.218 59.0392C121.626 58.5215 127.512 50.3955 127.512 40.4451C127.512 30.2569 121.342 21.9863 113.686 21.83C113.278 9.68291 105.724 0 96.4616 0C89.4525 0 83.4251 5.54668 80.7273 13.5076Z" fill="url(#paint0_radial_11_5)"/>
<path d="M20.872 35.7969C9.31509 36.0328 0 48.5192 0 63.8994C0 78.9199 8.88694 91.1885 20.0693 91.9708C20.2247 91.9953 20.3809 92.0111 20.5407 92.0111H90.4477C90.4613 92.0111 90.4743 92.0097 90.489 92.0082C90.5172 92.0097 90.5432 92.0111 90.5714 92.0111C99.629 92.0111 106.971 82.2759 106.971 70.2677C106.971 58.8053 100.28 49.4205 91.7928 48.5911C91.9951 47.2172 92.1041 45.7991 92.1041 44.3484C92.1041 32.1631 84.653 22.2845 75.462 22.2845C73.7806 22.2845 72.1578 22.6191 70.6278 23.2328C66.5562 11.2151 57.4563 2.84094 46.8755 2.84094C32.8917 2.84094 21.4873 17.4588 20.872 35.7969Z" fill="url(#paint1_radial_11_5)"/>
<path d="M36.0504 69.9695L17.1006 106.961C16.6985 107.747 16.8526 108.817 17.4456 109.35C18.0378 109.884 18.8449 109.679 19.2477 108.894L38.196 71.9024C38.5988 71.1172 38.4448 70.0471 37.8518 69.514C37.629 69.3127 37.3752 69.2168 37.1243 69.2168C36.7092 69.2168 36.3013 69.4805 36.0504 69.9695Z" fill="url(#paint2_radial_11_5)"/>
<path d="M47.7244 75.1295L25.937 117.661C25.5349 118.447 25.6889 119.517 26.2812 120.05C26.8742 120.585 27.6805 120.38 28.0833 119.594L49.8708 77.0617C50.2736 76.2764 50.1188 75.2064 49.5266 74.6721C49.3038 74.4722 49.05 74.3759 48.799 74.3759C48.384 74.3759 47.9754 74.6398 47.7244 75.1295Z" fill="url(#paint3_radial_11_5)"/>
<path d="M45.5333 65.4325L15.8575 123.364C15.4547 124.151 15.6088 125.219 16.2017 125.753C16.794 126.286 17.6011 126.082 18.0031 125.297L47.6796 67.3654C48.0817 66.5792 47.9277 65.5092 47.3354 64.9771C47.1119 64.7757 46.8581 64.6798 46.6072 64.6798C46.1921 64.6798 45.7842 64.9435 45.5333 65.4325Z" fill="url(#paint4_radial_11_5)"/>
<path d="M56.1567 71.6897L37.2075 108.68C36.8047 109.467 36.9588 110.537 37.5511 111.069C38.144 111.605 38.9511 111.398 39.3532 110.613L58.3029 73.6223C58.7048 72.837 58.5508 71.7663 57.9585 71.2332C57.735 71.0319 57.4823 70.936 57.2312 70.936C56.8163 70.936 56.4073 71.1997 56.1567 71.6897Z" fill="url(#paint5_radial_11_5)"/>
<path d="M77.5593 75.1295L58.6109 112.121C58.2079 112.907 58.362 113.975 58.9553 114.51C59.5476 115.042 60.3547 114.84 60.7566 114.053L79.7054 77.0617C80.1084 76.2764 79.9544 75.2064 79.3616 74.6721C79.1387 74.4722 78.8848 74.3759 78.6337 74.3759C78.2188 74.3759 77.8109 74.6398 77.5593 75.1295Z" fill="url(#paint6_radial_11_5)"/>
<path d="M67.8308 76.8488L46.0439 119.38C45.6403 120.167 45.7951 121.235 46.3881 121.77C46.9804 122.304 47.7874 122.098 48.1895 121.313L69.9769 78.7818C70.3788 77.9958 70.2259 76.9265 69.6325 76.3937C69.4101 76.1923 69.1563 76.0959 68.9052 76.0959C68.4903 76.0959 68.0813 76.3599 67.8308 76.8488Z" fill="url(#paint7_radial_11_5)"/>
<path d="M65.6401 67.1525L35.9629 125.084C35.5609 125.869 35.7149 126.939 36.3079 127.474C36.9001 128.006 37.7072 127.802 38.1093 127.017L67.7858 69.0855C68.1877 68.2993 68.0347 67.2293 67.4414 66.6961C67.219 66.4948 66.9652 66.3989 66.714 66.3989C66.2991 66.3989 65.8902 66.6626 65.6401 67.1525Z" fill="url(#paint8_radial_11_5)"/>
</g>
<defs>
<radialGradient id="paint0_radial_11_5" cx="0" cy="0" r="1" gradientUnits="userSpaceOnUse" gradientTransform="translate(97.1422 -1.84446) rotate(120.527) scale(37.3961 33.7206)">
<stop stop-color="#D1CBC3"/>
<stop offset="0.243404" stop-color="#D1CBC3"/>
<stop offset="1" stop-color="#AAA49D"/>
</radialGradient>
<radialGradient id="paint1_radial_11_5" cx="0" cy="0" r="1" gradientUnits="userSpaceOnUse" gradientTransform="translate(37.9348 41.9355) rotate(38.4654) scale(66.6056 73.577)">
<stop stop-color="#FEFEFE"/>
<stop offset="0.156757" stop-color="#FEFEFE"/>
<stop offset="0.362006" stop-color="#FEFEFE"/>
<stop offset="1" stop-color="#D1CBC3"/>
</radialGradient>
<radialGradient id="paint2_radial_11_5" cx="0" cy="0" r="1" gradientUnits="userSpaceOnUse" gradientTransform="translate(27.6486 89.4317) rotate(50.1044) scale(14.9032 14.745)">
<stop stop-color="#7DBAC7"/>
<stop offset="0.7114" stop-color="#7DBAC7"/>
<stop offset="1" stop-color="#59A8B2"/>
</radialGradient>
<radialGradient id="paint3_radial_11_5" cx="0" cy="0" r="1" gradientUnits="userSpaceOnUse" gradientTransform="translate(37.9041 97.3619) rotate(51.1656) scale(14.982 16.7075)">
<stop stop-color="#7DBAC7"/>
<stop offset="0.7114" stop-color="#7DBAC7"/>
<stop offset="1" stop-color="#59A8B2"/>
</radialGradient>
<radialGradient id="paint4_radial_11_5" cx="0" cy="0" r="1" gradientUnits="userSpaceOnUse" gradientTransform="translate(31.7683 95.3644) rotate(54.024) scale(15.1971 22.061)">
<stop stop-color="#7DBAC7"/>
<stop offset="0.7114" stop-color="#7DBAC7"/>
<stop offset="1" stop-color="#59A8B2"/>
</radialGradient>
<radialGradient id="paint5_radial_11_5" cx="0" cy="0" r="1" gradientUnits="userSpaceOnUse" gradientTransform="translate(47.7549 91.1518) rotate(50.1044) scale(14.9032 14.745)">
<stop stop-color="#7DBAC7"/>
<stop offset="0.7114" stop-color="#7DBAC7"/>
<stop offset="1" stop-color="#59A8B2"/>
</radialGradient>
<radialGradient id="paint6_radial_11_5" cx="0" cy="0" r="1" gradientUnits="userSpaceOnUse" gradientTransform="translate(69.1585 94.5912) rotate(50.1044) scale(14.9032 14.745)">
<stop stop-color="#7DBAC7"/>
<stop offset="0.7114" stop-color="#7DBAC7"/>
<stop offset="1" stop-color="#59A8B2"/>
</radialGradient>
<radialGradient id="paint7_radial_11_5" cx="0" cy="0" r="1" gradientUnits="userSpaceOnUse" gradientTransform="translate(58.0106 99.0813) rotate(51.1657) scale(14.982 16.7075)">
<stop stop-color="#7DBAC7"/>
<stop offset="0.7114" stop-color="#7DBAC7"/>
<stop offset="1" stop-color="#59A8B2"/>
</radialGradient>
<radialGradient id="paint8_radial_11_5" cx="0" cy="0" r="1" gradientUnits="userSpaceOnUse" gradientTransform="translate(51.8745 97.0844) rotate(54.024) scale(15.1971 22.061)">
<stop stop-color="#7DBAC7"/>
<stop offset="0.7114" stop-color="#7DBAC7"/>
<stop offset="1" stop-color="#59A8B2"/>
</radialGradient>
<clipPath id="clip0_11_5">
<rect width="128" height="128" fill="white"/>
</clipPath>
</defs>
</svg>
