<svg width="128" height="128" viewBox="0 0 128 128" fill="none" xmlns="http://www.w3.org/2000/svg">
<g clip-path="url(#clip0_11_59)">
<path d="M41.4142 101.251V103.013L40.2437 101.769C40.1264 101.645 39.9264 101.636 39.798 101.749C39.6696 101.862 39.6601 102.054 39.7773 102.18L41.4142 103.918V107.293C40.8366 107.39 40.3057 107.617 39.8541 107.942L37.3552 105.529L37.2398 103.191C37.232 103.023 37.0915 102.892 36.9096 102.9C36.7373 102.909 36.6019 103.052 36.6105 103.22L36.6924 104.888L35.3728 103.613C35.1667 103.415 34.8341 103.415 34.6289 103.613C34.4238 103.812 34.4238 104.133 34.6289 104.331L35.9597 105.616L34.2117 105.536C34.0299 105.529 33.8902 105.657 33.8824 105.825C33.8747 105.993 34.0083 106.136 34.1824 106.144L36.6226 106.256L39.1084 108.658C38.7533 109.112 38.5103 109.65 38.4146 110.237H34.9211L33.1196 108.655C32.9912 108.542 32.7921 108.552 32.674 108.676C32.5568 108.801 32.5662 108.993 32.6955 109.106L33.9833 110.237H32.1103C31.8197 110.237 31.5853 110.465 31.5853 110.744C31.5853 111.024 31.8197 111.252 32.1103 111.252H33.9695L32.6955 112.37C32.5662 112.483 32.5568 112.677 32.674 112.8C32.736 112.867 32.8223 112.9 32.9076 112.9C32.9826 112.9 33.0601 112.874 33.1196 112.82L34.9064 111.252H38.4008C38.481 111.839 38.7085 112.381 39.049 112.843L36.6226 115.186L34.1824 115.299C34.0083 115.307 33.8747 115.449 33.8824 115.617C33.8902 115.78 34.0307 115.907 34.197 115.907C34.2014 115.907 34.2074 115.906 34.2117 115.906L35.9597 115.826L34.6289 117.113C34.4238 117.31 34.4238 117.632 34.6289 117.829C34.7315 117.929 34.8668 117.978 35.0004 117.978C35.1349 117.978 35.2693 117.929 35.3728 117.829L36.6924 116.554L36.6105 118.223C36.6019 118.391 36.7373 118.534 36.9096 118.542H36.9252C37.0933 118.542 37.2328 118.415 37.2398 118.252L37.3552 115.914L39.773 113.578C40.2428 113.934 40.803 114.183 41.4142 114.284V117.511L39.7773 119.25C39.6601 119.375 39.6696 119.568 39.798 119.681C39.8583 119.734 39.9342 119.759 40.0101 119.759C40.0954 119.759 40.1816 119.726 40.2437 119.66L41.4142 118.415V120.226C41.4142 120.505 41.6495 120.733 41.94 120.733C42.2305 120.733 42.4658 120.505 42.4658 120.226V118.429L43.6242 119.66C43.6863 119.726 43.7708 119.759 43.857 119.759C43.9328 119.759 44.0078 119.734 44.069 119.681C44.1974 119.568 44.2078 119.375 44.0905 119.25L42.4658 117.525V114.315C43.1303 114.241 43.7406 113.994 44.25 113.622L46.6032 115.895L46.7178 118.252C46.7264 118.415 46.8652 118.542 47.0324 118.542H47.0479C47.2212 118.534 47.3565 118.391 47.3479 118.223L47.2651 116.534L48.5616 117.787C48.6641 117.886 48.7985 117.935 48.933 117.935C49.0675 117.935 49.2011 117.886 49.3045 117.787C49.5088 117.59 49.5088 117.269 49.3045 117.07L48.0176 115.828L49.7458 115.906C49.751 115.906 49.7553 115.907 49.7613 115.907C49.9286 115.907 50.0673 115.779 50.076 115.617C50.0846 115.449 49.9493 115.307 49.776 115.299L47.3556 115.188L44.9904 112.903C45.3559 112.43 45.6024 111.866 45.6852 111.252H49.0088L50.7948 112.82C50.8568 112.874 50.9319 112.9 51.0077 112.9C51.0922 112.9 51.1784 112.867 51.2404 112.8C51.3576 112.677 51.3482 112.483 51.2197 112.37L49.9449 111.252H51.7568C52.0464 111.252 52.2825 111.024 52.2825 110.744C52.2825 110.465 52.0464 110.237 51.7568 110.237H49.9312L51.2197 109.106C51.3482 108.993 51.3576 108.801 51.2404 108.676C51.1241 108.552 50.9241 108.542 50.7948 108.655L48.9942 110.237H45.6705C45.5714 109.625 45.3111 109.064 44.9309 108.596L47.3556 106.254L49.776 106.144C49.9493 106.136 50.0846 105.993 50.076 105.825C50.0673 105.657 49.9242 105.529 49.7458 105.536L48.0176 105.615L49.3045 104.373C49.5088 104.175 49.5088 103.854 49.3045 103.656C49.0985 103.457 48.7667 103.457 48.5616 103.656L47.2651 104.907L47.3479 103.22C47.3565 103.052 47.2212 102.909 47.0479 102.9C46.8695 102.894 46.7264 103.023 46.7178 103.191L46.6032 105.547L44.1699 107.897C43.6768 107.558 43.0959 107.333 42.4658 107.263V103.904L44.0905 102.18C44.2078 102.054 44.1974 101.862 44.069 101.749C43.9406 101.636 43.7406 101.645 43.6242 101.769L42.4658 102.999V101.251C42.4658 100.97 42.2305 100.744 41.94 100.744C41.6495 100.744 41.4142 100.97 41.4142 101.251ZM42.4658 107.877C42.9226 107.939 43.3484 108.098 43.7182 108.334L42.4658 109.543V107.877ZM40.3031 108.376C40.6323 108.154 41.0082 107.993 41.4142 107.91V109.45L40.3031 108.376ZM44.4802 109.031C44.7525 109.381 44.9456 109.791 45.0344 110.237H43.232L44.4802 109.031ZM39.5584 109.092L40.7444 110.237H39.0524C39.1352 109.816 39.311 109.428 39.5584 109.092ZM43.2803 111.252H45.0481C44.9749 111.698 44.7982 112.113 44.5405 112.468L43.2803 111.252ZM39.0378 111.252H40.6962L39.5006 112.407C39.2662 112.065 39.1067 111.673 39.0378 111.252ZM42.4658 111.899L43.7992 113.189C43.4114 113.455 42.9571 113.633 42.4658 113.7V111.899ZM40.2238 113.143L41.4142 111.993V113.667C40.9746 113.578 40.5712 113.395 40.2238 113.143Z" fill="url(#paint0_radial_11_59)"/>
<path d="M95.9438 83.491V85.8137L94.4 84.1747C94.2468 84.0105 93.9837 83.9999 93.8143 84.1478C93.645 84.2971 93.632 84.55 93.7865 84.7142L95.9438 87.0057V91.4526C95.1829 91.58 94.4841 91.8784 93.8874 92.3074L90.5962 89.128L90.4437 86.0479C90.4333 85.8268 90.2491 85.6557 90.0105 85.6657C89.781 85.677 89.6033 85.8655 89.6149 86.0859L89.7235 88.2857L87.9839 86.6036C87.7124 86.3432 87.2747 86.3432 87.0045 86.6036C86.7343 86.8646 86.7343 87.2892 87.0045 87.5495L88.7577 89.2429L86.4556 89.1373C86.2145 89.1286 86.0315 89.2984 86.0212 89.5182C86.0102 89.7405 86.1867 89.9291 86.4162 89.9391L89.6304 90.0864L92.9067 93.2508C92.4387 93.849 92.1187 94.5583 91.9926 95.3313H87.3891L85.016 93.2471C84.8472 93.0985 84.5841 93.1097 84.4302 93.2739C84.2757 93.4381 84.2867 93.6916 84.4568 93.8403L86.1537 95.3313H83.6862C83.3035 95.3313 82.9932 95.631 82.9932 95.9994C82.9932 96.369 83.3035 96.6681 83.6862 96.6681H86.1356L84.4568 98.1417C84.2867 98.2909 84.2757 98.5444 84.4302 98.7086C84.5111 98.796 84.6242 98.8391 84.7367 98.8391C84.8362 98.8391 84.9358 98.8054 85.016 98.7342L87.3704 96.6681H91.9738C92.0792 97.4424 92.3792 98.1567 92.8272 98.7636L89.6304 101.852L86.4162 102C86.1867 102.01 86.0102 102.198 86.0212 102.419C86.0309 102.634 86.2151 102.802 86.4349 102.802C86.442 102.802 86.4485 102.802 86.4556 102.802L88.7577 102.695L87.0045 104.39C86.7343 104.65 86.7343 105.073 87.0045 105.334C87.1383 105.465 87.3167 105.529 87.4932 105.529C87.671 105.529 87.8475 105.465 87.9839 105.334L89.7235 103.654L89.6149 105.852C89.6033 106.074 89.781 106.262 90.0105 106.272C90.017 106.272 90.0241 106.273 90.0293 106.273C90.2497 106.273 90.4333 106.106 90.4437 105.891L90.5962 102.81L93.7833 99.7326C94.4 100.202 95.1383 100.529 95.9438 100.664V104.914L93.7865 107.207C93.632 107.37 93.645 107.625 93.8143 107.773C93.8945 107.843 93.994 107.877 94.0936 107.877C94.2061 107.877 94.3192 107.833 94.4 107.747L95.9438 106.106V108.491C95.9438 108.861 96.2541 109.159 96.6361 109.159C97.0189 109.159 97.3285 108.861 97.3285 108.491V106.126L98.8542 107.747C98.9369 107.833 99.0488 107.877 99.1619 107.877C99.2608 107.877 99.3616 107.843 99.4418 107.773C99.6105 107.625 99.6228 107.37 99.4683 107.207L97.3285 104.933V100.704C98.2051 100.606 99.008 100.28 99.6797 99.7919L102.778 102.787L102.932 105.891C102.941 106.106 103.126 106.273 103.346 106.273C103.352 106.273 103.359 106.272 103.366 106.272C103.595 106.262 103.771 106.074 103.761 105.852L103.652 103.629L105.361 105.279C105.495 105.409 105.671 105.475 105.85 105.475C106.026 105.475 106.204 105.409 106.338 105.279C106.609 105.018 106.609 104.593 106.338 104.333L104.644 102.697L106.921 102.802C106.928 102.802 106.935 102.802 106.941 102.802C107.161 102.802 107.344 102.634 107.355 102.419C107.367 102.198 107.19 102.01 106.961 102L103.771 101.854L100.655 98.8441C101.137 98.2191 101.461 97.4767 101.571 96.6681H105.95L108.303 98.7342C108.383 98.8054 108.483 98.8391 108.582 98.8391C108.696 98.8391 108.808 98.796 108.891 98.7086C109.044 98.5444 109.032 98.2909 108.862 98.1417L107.184 96.6681H109.569C109.953 96.6681 110.262 96.369 110.262 95.9994C110.262 95.631 109.953 95.3313 109.569 95.3313H107.165L108.862 93.8403C109.032 93.6916 109.044 93.4381 108.891 93.2739C108.735 93.1097 108.472 93.0985 108.303 93.2471L105.93 95.3313H101.553C101.421 94.5246 101.079 93.7853 100.576 93.1709L103.771 90.0852L106.961 89.9391C107.19 89.9291 107.367 89.7405 107.355 89.5182C107.344 89.2978 107.155 89.128 106.921 89.1373L104.644 89.2422L106.338 87.6051C106.609 87.3428 106.609 86.9208 106.338 86.6604C106.067 86.3988 105.63 86.3988 105.361 86.6604L103.652 88.3107L103.761 86.0859C103.771 85.8655 103.595 85.677 103.366 85.6657C103.132 85.6564 102.943 85.8268 102.932 86.0479L102.778 89.153L99.5737 92.2481C98.9246 91.8022 98.1592 91.505 97.3285 91.4126V86.9876L99.4683 84.7142C99.6228 84.55 99.6105 84.2971 99.4418 84.1478C99.2718 83.9999 99.008 84.0105 98.8542 84.1747L97.3285 85.7962V83.491C97.3285 83.122 97.0189 82.8223 96.6361 82.8223C96.2541 82.8223 95.9438 83.122 95.9438 83.491ZM97.3285 92.2225C97.931 92.3043 98.4928 92.5122 98.9789 92.8225L97.3285 94.4178V92.2225ZM94.4795 92.8799C94.914 92.5871 95.4085 92.3742 95.9438 92.2649V94.2936L94.4795 92.8799ZM99.9848 93.7428C100.342 94.2049 100.597 94.7444 100.713 95.3313H98.3396L99.9848 93.7428ZM93.4989 93.8215L95.0607 95.3313H92.8324C92.941 94.7768 93.173 94.2661 93.4989 93.8215ZM98.4029 96.6681H100.732C100.635 97.2569 100.403 97.8026 100.062 98.2722L98.4029 96.6681ZM92.8136 96.6681H94.9987L93.4226 98.1891C93.1142 97.7389 92.9041 97.2226 92.8136 96.6681ZM97.3285 97.5204L99.0869 99.22C98.5755 99.5703 97.9763 99.8051 97.3285 99.8943V97.5204ZM94.3755 99.1601L95.9438 97.6447V99.8506C95.3646 99.7333 94.8338 99.4922 94.3755 99.1601Z" fill="url(#paint1_radial_11_59)"/>
<path d="M63.0899 86.099V87.1043L62.4219 86.395C62.3547 86.3238 62.2409 86.3182 62.1676 86.3831C62.0943 86.4481 62.0891 86.5573 62.1555 86.6285L63.0899 87.6213V89.5457C62.7606 89.6006 62.4572 89.7305 62.1995 89.9166L60.7746 88.5404L60.7083 87.2055C60.704 87.1099 60.6238 87.0356 60.5204 87.0406C60.4213 87.045 60.3437 87.1268 60.3497 87.2229L60.3972 88.1745L59.6438 87.4471C59.5257 87.3341 59.3361 87.3341 59.2188 87.4471C59.1025 87.5601 59.1025 87.7424 59.2188 87.8561L59.9782 88.5891L58.9819 88.5435C58.8775 88.5404 58.7983 88.6128 58.7931 88.7084C58.7888 88.8039 58.8654 88.8863 58.9646 88.8901L60.3566 88.9538L61.7746 90.3243C61.5729 90.5834 61.4332 90.8912 61.3789 91.2253H59.3861L58.3586 90.3224C58.2845 90.2587 58.1716 90.2637 58.1043 90.3343C58.0371 90.4061 58.0431 90.5147 58.1164 90.5797L58.8517 91.2253H57.7819C57.6174 91.2253 57.4821 91.3552 57.4821 91.515C57.4821 91.6748 57.6174 91.8035 57.7819 91.8035H58.8431L58.1164 92.4422C58.0431 92.5072 58.0371 92.6171 58.1043 92.6876C58.1405 92.7251 58.1888 92.7451 58.2371 92.7451C58.2802 92.7451 58.3233 92.7301 58.3586 92.6995L59.3774 91.8035H61.3703C61.416 92.1394 61.5461 92.4491 61.741 92.712L60.3566 94.0488L58.9646 94.1131C58.8654 94.1175 58.7888 94.1999 58.7931 94.2948C58.7983 94.3878 58.8775 94.4603 58.9732 94.4603H58.9819L59.9782 94.4134L59.2188 95.1471C59.1025 95.2601 59.1025 95.4437 59.2188 95.5567C59.2783 95.6135 59.3542 95.6416 59.4309 95.6416C59.5076 95.6416 59.5844 95.6135 59.6438 95.5567L60.3972 94.8293L60.3497 95.7808C60.3437 95.877 60.4213 95.9588 60.5204 95.9619C60.5239 95.9619 60.5264 95.9632 60.5299 95.9632C60.6246 95.9632 60.704 95.8907 60.7083 95.7971L60.7746 94.4646L62.1538 93.1309C62.4219 93.3345 62.7408 93.4756 63.0899 93.5337V95.375L62.1555 96.3678C62.0891 96.4383 62.0943 96.5482 62.1676 96.6113C62.2021 96.6431 62.246 96.6575 62.2891 96.6575C62.3382 96.6575 62.3865 96.6388 62.4219 96.6007L63.0899 95.8914V96.9235C63.0899 97.0846 63.2234 97.2126 63.3898 97.2126C63.5553 97.2126 63.689 97.0846 63.689 96.9235V95.8995L64.35 96.6007C64.3854 96.6388 64.4345 96.6575 64.4837 96.6575C64.5259 96.6575 64.569 96.6431 64.6034 96.6113C64.6775 96.5482 64.6827 96.4383 64.6164 96.3678L63.689 95.3837V93.5518C64.0691 93.5106 64.4164 93.3682 64.7066 93.1572L66.05 94.4534L66.1159 95.7971C66.1198 95.8907 66.2 95.9632 66.2943 95.9632C66.2982 95.9632 66.3008 95.9619 66.304 95.9619C66.4029 95.9588 66.4792 95.877 66.4747 95.7808L66.4262 94.818L67.1671 95.5323C67.2252 95.5892 67.3022 95.6166 67.3791 95.6166C67.4554 95.6166 67.5323 95.5892 67.5911 95.5323C67.7082 95.4193 67.7082 95.2364 67.5911 95.124L66.8574 94.4147L67.8426 94.4603H67.851C67.9467 94.4603 68.0262 94.3878 68.0307 94.2948C68.0359 94.1999 67.959 94.1175 67.8601 94.1131L66.4792 94.05L65.1301 92.7463C65.3389 92.4753 65.4791 92.1544 65.5257 91.8035H67.4218L68.4419 92.6995C68.4755 92.7301 68.5201 92.7451 68.5621 92.7451C68.6113 92.7451 68.6598 92.7251 68.6953 92.6876C68.7612 92.6171 68.7574 92.5072 68.683 92.4422L67.9564 91.8035H68.9888C69.1556 91.8035 69.2881 91.6748 69.2881 91.515C69.2881 91.3552 69.1556 91.2253 68.9888 91.2253H67.948L68.683 90.5797C68.7574 90.5147 68.7612 90.4061 68.6953 90.3343C68.6287 90.2637 68.5143 90.2587 68.4419 90.3224L67.414 91.2253H65.5179C65.4617 90.8763 65.3136 90.5566 65.0964 90.2899L66.4792 88.9538L67.8601 88.8901C67.959 88.8863 68.0359 88.8039 68.0307 88.7084C68.0262 88.6128 67.9454 88.5404 67.8426 88.5435L66.8574 88.5885L67.5911 87.881C67.7082 87.7674 67.7082 87.5838 67.5911 87.4715C67.4728 87.3578 67.2841 87.3578 67.1671 87.4715L66.4262 88.1858L66.4747 87.2229C66.4792 87.1268 66.4029 87.045 66.304 87.0406C66.2012 87.0356 66.1204 87.1099 66.1159 87.2055L66.05 88.5504L64.662 89.8903C64.3802 89.6968 64.0492 89.5682 63.689 89.5282V87.6126L64.6164 86.6285C64.6827 86.5573 64.6775 86.4481 64.6034 86.3831C64.5302 86.3182 64.4164 86.3238 64.35 86.395L63.689 87.0968V86.099C63.689 85.9386 63.5553 85.8093 63.3898 85.8093C63.2234 85.8093 63.0899 85.9386 63.0899 86.099ZM63.689 89.8797C63.951 89.9141 64.1931 90.0046 64.4043 90.1395L63.689 90.8294V89.8797ZM62.4563 90.1645C62.6443 90.0371 62.8571 89.9447 63.0899 89.8978V90.7764L62.4563 90.1645ZM64.8398 90.5372C64.9937 90.737 65.1042 90.9705 65.1553 91.2253H64.1276L64.8398 90.5372ZM62.0314 90.5722L62.7072 91.2253H61.7426C61.7892 90.9855 61.89 90.7639 62.0314 90.5722ZM64.1536 91.8035H65.1617C65.1204 92.0595 65.0208 92.2955 64.8734 92.499L64.1536 91.8035ZM61.734 91.8035H62.6796L61.9986 92.4628C61.8651 92.268 61.7737 92.0445 61.734 91.8035ZM63.689 92.1744L64.45 92.9093C64.2294 93.061 63.97 93.1621 63.689 93.2009V92.1744ZM62.4106 92.8837L63.0899 92.2274V93.1821C62.84 93.1315 62.6089 93.0267 62.4106 92.8837Z" fill="url(#paint2_radial_11_59)"/>
<path d="M72.3672 116.712V117.718L71.6988 117.008C71.6309 116.938 71.5177 116.933 71.4447 116.996C71.3716 117.061 71.3652 117.171 71.4324 117.241L72.3672 118.235V120.16C72.0369 120.215 71.7337 120.343 71.4764 120.529L70.0503 119.153L69.9863 117.819C69.9805 117.723 69.9009 117.648 69.7975 117.653C69.6986 117.658 69.6217 117.74 69.6262 117.836L69.6727 118.788L68.919 118.06C68.802 117.947 68.6132 117.947 68.4962 118.06C68.3785 118.173 68.3785 118.356 68.4962 118.469L69.2551 119.203L68.2583 119.157C68.1548 119.154 68.0753 119.227 68.0701 119.323C68.065 119.418 68.1419 119.499 68.2408 119.504L69.6327 119.568L71.051 120.938C70.848 121.197 70.7097 121.504 70.656 121.839H68.6623L67.6351 120.936C67.5614 120.873 67.4476 120.877 67.3817 120.949C67.3144 121.019 67.3196 121.129 67.3933 121.194L68.1277 121.839H67.0591C66.8929 121.839 66.7598 121.968 66.7598 122.128C66.7598 122.288 66.8929 122.417 67.0591 122.417H68.1193L67.3933 123.055C67.3196 123.12 67.3144 123.23 67.3817 123.302C67.4166 123.339 67.4651 123.358 67.5142 123.358C67.5575 123.358 67.6002 123.343 67.6351 123.313L68.6539 122.417H70.6476C70.6929 122.753 70.8234 123.062 71.0174 123.325L69.6327 124.663L68.2408 124.726C68.1419 124.731 68.065 124.813 68.0701 124.908C68.0753 125.001 68.1548 125.073 68.2486 125.073H68.2583L69.2551 125.028L68.4962 125.76C68.3785 125.874 68.3785 126.057 68.4962 126.17C68.5537 126.227 68.6313 126.254 68.7082 126.254C68.7845 126.254 68.8614 126.227 68.919 126.17L69.6727 125.443L69.6262 126.395C69.6217 126.491 69.6986 126.571 69.7975 126.576H69.8059C69.9009 126.576 69.9805 126.504 69.9863 126.411L70.0503 125.077L71.4311 123.744C71.6981 123.948 72.0181 124.089 72.3672 124.148V125.989L71.4324 126.98C71.3652 127.051 71.3716 127.161 71.4447 127.226C71.479 127.256 71.5223 127.271 71.5656 127.271C71.6147 127.271 71.6626 127.251 71.6988 127.213L72.3672 126.504V127.536C72.3672 127.697 72.5004 127.826 72.6672 127.826C72.8314 127.826 72.9658 127.697 72.9658 127.536V126.512L73.6272 127.213C73.6627 127.251 73.7106 127.271 73.7597 127.271C73.8036 127.271 73.8463 127.256 73.8806 127.226C73.9536 127.161 73.9588 127.051 73.8929 126.98L72.9658 125.996V124.164C73.3453 124.123 73.6944 123.982 73.984 123.77L75.3254 125.067L75.3927 126.411C75.3965 126.504 75.4767 126.576 75.5717 126.576H75.5795C75.6797 126.571 75.756 126.491 75.7502 126.395L75.7036 125.432L76.4432 126.147C76.502 126.202 76.5796 126.231 76.6559 126.231C76.7328 126.231 76.8084 126.202 76.8672 126.147C76.9843 126.033 76.9843 125.85 76.8672 125.737L76.1329 125.028L77.12 125.073H77.1284C77.2234 125.073 77.3023 125.001 77.3075 124.908C77.312 124.813 77.2364 124.731 77.1362 124.726L75.756 124.663L74.4074 123.36C74.6156 123.09 74.7552 122.768 74.8037 122.417H76.6985L77.718 123.313C77.7523 123.343 77.7956 123.358 77.8389 123.358C77.888 123.358 77.9358 123.339 77.972 123.302C78.0393 123.23 78.0335 123.12 77.9604 123.055L77.2325 122.417H78.2662C78.4317 122.417 78.5661 122.288 78.5661 122.128C78.5661 121.968 78.4317 121.839 78.2662 121.839H77.2247L77.9604 121.194C78.0335 121.129 78.0393 121.019 77.972 120.949C77.9048 120.877 77.791 120.873 77.718 120.936L76.6895 121.839H74.7953C74.7384 121.489 74.5891 121.17 74.3719 120.903L75.756 119.568L77.1362 119.504C77.2364 119.499 77.312 119.418 77.3075 119.323C77.3023 119.227 77.2215 119.153 77.12 119.157L76.1335 119.203L76.8672 118.494C76.9843 118.38 76.9843 118.198 76.8672 118.085C76.7502 117.972 76.5602 117.972 76.4432 118.085L75.7036 118.798L75.7502 117.836C75.756 117.74 75.6797 117.658 75.5795 117.653C75.4786 117.65 75.3965 117.723 75.3927 117.819L75.3254 119.164L73.9381 120.504C73.6575 120.311 73.3253 120.183 72.9658 120.142V118.226L73.8929 117.241C73.9588 117.171 73.9536 117.061 73.8806 116.996C73.8075 116.933 73.6944 116.938 73.6272 117.008L72.9658 117.71V116.712C72.9658 116.553 72.8314 116.423 72.6672 116.423C72.5004 116.423 72.3672 116.553 72.3672 116.712ZM72.9658 120.492C73.227 120.529 73.4694 120.618 73.6808 120.753L72.9658 121.443V120.492ZM71.7317 120.777C71.9205 120.65 72.1351 120.558 72.3672 120.512V121.39L71.7317 120.777ZM74.1159 121.151C74.271 121.352 74.3816 121.584 74.432 121.839H73.4041L74.1159 121.151ZM71.3076 121.185L71.9845 121.839H71.018C71.0665 121.599 71.1661 121.377 71.3076 121.185ZM73.4313 122.417H74.4391C74.3977 122.672 74.2975 122.909 74.1501 123.112L73.4313 122.417ZM71.0103 122.417H71.9567L71.2747 123.077C71.1422 122.882 71.0497 122.658 71.0103 122.417ZM72.9658 122.787L73.7274 123.523C73.5063 123.674 73.2464 123.777 72.9658 123.814V122.787ZM71.6871 123.496L72.3672 122.841V123.796C72.1151 123.744 71.8862 123.639 71.6871 123.496Z" fill="url(#paint3_radial_11_59)"/>
<path d="M23.6633 84.6055V85.6114L22.9953 84.9014C22.9289 84.8315 22.8151 84.8253 22.7419 84.8896C22.6686 84.9539 22.6625 85.0644 22.7298 85.1343L23.6633 86.1277V88.0534C23.334 88.1071 23.0306 88.2369 22.7737 88.423L21.3472 87.0456L21.2826 85.7119C21.2774 85.617 21.1981 85.5421 21.0947 85.5464C20.9955 85.5521 20.9188 85.6332 20.9232 85.7294L20.9696 86.681L20.2163 85.9535C20.0991 85.8405 19.9103 85.8405 19.7931 85.9535C19.6759 86.0666 19.6759 86.2489 19.7931 86.3625L20.5525 87.0956L19.5552 87.0506C19.4509 87.0456 19.3724 87.1193 19.3673 87.2154C19.3621 87.3116 19.438 87.3928 19.5379 87.3971L20.93 87.4614L22.3479 88.8307C22.1454 89.0899 22.0066 89.3971 21.9523 89.7324H19.9595L18.9321 88.8301C18.8587 88.7652 18.745 88.7708 18.6777 88.8413C18.6113 88.9125 18.6165 89.0224 18.6907 89.0874L19.425 89.7324H18.3562C18.1898 89.7324 18.0571 89.8616 18.0571 90.0221C18.0571 90.1813 18.1898 90.3112 18.3562 90.3112H19.4164L18.6907 90.9487C18.6165 91.0136 18.6113 91.1235 18.6777 91.194C18.7131 91.2328 18.7622 91.2509 18.8105 91.2509C18.8544 91.2509 18.8975 91.2365 18.9321 91.2059L19.9508 90.3112H21.9446C21.9902 90.6465 22.1204 90.9555 22.3143 91.2184L20.93 92.5552L19.5379 92.6189C19.438 92.6245 19.3621 92.7063 19.3673 92.8019C19.3716 92.8943 19.4517 92.9667 19.5466 92.9667H19.5552L20.5525 92.9199L19.7931 93.6541C19.6759 93.7678 19.6759 93.9507 19.7931 94.0637C19.8509 94.1187 19.9275 94.1474 20.0043 94.1474C20.0819 94.1474 20.1586 94.1187 20.2163 94.0637L20.9696 93.3357L20.9232 94.2879C20.9188 94.3834 20.9955 94.4652 21.0947 94.4696C21.0973 94.4696 21.0998 94.4696 21.1033 94.4696C21.1981 94.4696 21.2774 94.3978 21.2826 94.3048L21.3472 92.9698L22.7272 91.638C22.9953 91.8409 23.315 91.9827 23.6633 92.0407V93.8814L22.7298 94.8742C22.6625 94.9448 22.6686 95.054 22.7419 95.1196C22.7763 95.1496 22.8194 95.1645 22.8617 95.1645C22.9108 95.1645 22.9599 95.1452 22.9953 95.1071L23.6633 94.3978V95.4299C23.6633 95.5898 23.7977 95.7196 23.9632 95.7196C24.1287 95.7196 24.2632 95.5898 24.2632 95.4299V94.4053L24.9235 95.1071C24.9588 95.1452 25.0079 95.1645 25.0562 95.1645C25.101 95.1645 25.1432 95.1496 25.1777 95.1196C25.251 95.054 25.2562 94.9448 25.1898 94.8742L24.2632 93.8889V92.0582C24.6425 92.0157 24.9907 91.8759 25.2812 91.663L26.6224 92.9598L26.6896 94.3048C26.6939 94.3978 26.7741 94.4696 26.8688 94.4696C26.8714 94.4696 26.8749 94.4696 26.8775 94.4696C26.9766 94.4652 27.0533 94.3834 27.0482 94.2879L27.0016 93.3245L27.7403 94.0388C27.799 94.0956 27.8756 94.1249 27.9524 94.1249C28.029 94.1249 28.1058 94.0956 28.1644 94.0388C28.2816 93.9258 28.2816 93.7428 28.1644 93.6292L27.43 92.9211L28.4169 92.9667H28.4256C28.5204 92.9667 28.5997 92.8943 28.6048 92.8019C28.6092 92.7063 28.5324 92.6245 28.4333 92.6189L27.0525 92.5565L25.7044 91.2527C25.913 90.983 26.0526 90.6614 26.1009 90.3112H27.9954L29.0152 91.2059C29.0496 91.2365 29.0927 91.2509 29.1349 91.2509C29.1841 91.2509 29.2332 91.2328 29.2685 91.194C29.3366 91.1235 29.3297 91.0136 29.2573 90.9487L28.5299 90.3112H29.5634C29.7289 90.3112 29.8633 90.1813 29.8633 90.0221C29.8633 89.8616 29.7289 89.7324 29.5634 89.7324H28.5221L29.2573 89.0874C29.3297 89.0224 29.3366 88.9125 29.2685 88.8413C29.2022 88.7708 29.0884 88.7652 29.0152 88.8301L27.9868 89.7324H26.0922C26.0353 89.3827 25.8863 89.0624 25.6691 88.7964L27.0525 87.4614L28.4333 87.3971C28.5324 87.3928 28.6092 87.3116 28.6048 87.2154C28.5997 87.1193 28.5187 87.0456 28.4169 87.0506L27.43 87.0956L28.1644 86.3862C28.2816 86.2739 28.2816 86.0909 28.1644 85.9785C28.0472 85.8643 27.8575 85.8643 27.7403 85.9785L27.0016 86.6922L27.0482 85.7294C27.0533 85.6332 26.9766 85.5521 26.8775 85.5464C26.7758 85.5433 26.6939 85.617 26.6896 85.7119L26.6224 87.0568L25.2355 88.398C24.9545 88.2038 24.6226 88.0758 24.2632 88.0346V86.119L25.1898 85.1343C25.2562 85.0644 25.251 84.9539 25.1777 84.8896C25.1044 84.8253 24.9907 84.8315 24.9235 84.9014L24.2632 85.6033V84.6055C24.2632 84.445 24.1287 84.317 23.9632 84.317C23.7977 84.317 23.6633 84.445 23.6633 84.6055ZM24.2632 88.3862C24.5244 88.4211 24.7674 88.5117 24.9769 88.6465L24.2632 89.3371V88.3862ZM23.0297 88.6703C23.2168 88.5435 23.4323 88.4517 23.6633 88.4043V89.2828L23.0297 88.6703ZM25.4122 89.0436C25.5681 89.2435 25.6785 89.4782 25.7285 89.7324H24.7011L25.4122 89.0436ZM22.6039 89.0786L23.2814 89.7324H22.316C22.3626 89.4926 22.4643 89.2703 22.6039 89.0786ZM24.7286 90.3112H25.7371C25.6949 90.5659 25.5941 90.8019 25.4475 91.0061L24.7286 90.3112ZM22.3083 90.3112H23.2547L22.572 90.9705C22.4393 90.7745 22.3471 90.5509 22.3083 90.3112ZM24.2632 90.6808L25.0243 91.4163C24.8036 91.5674 24.5434 91.6698 24.2632 91.7073V90.6808ZM22.9841 91.3901L23.6633 90.7339V91.6886C23.4124 91.638 23.1832 91.5331 22.9841 91.3901Z" fill="url(#paint4_radial_11_59)"/>
<path d="M24.8777 28.6154C11.1028 28.8202 0 39.6621 0 53.0165C0 66.0586 10.5917 76.712 23.9218 77.3913C24.1062 77.4119 24.2933 77.4263 24.4829 77.4263H107.805C107.823 77.4263 107.838 77.4244 107.856 77.4238C107.888 77.4244 107.921 77.4263 107.954 77.4263C118.75 77.4263 127.501 68.9727 127.501 58.5461C127.501 48.5934 119.524 40.4447 109.41 39.7245C109.651 38.5316 109.781 37.3003 109.781 36.0406C109.781 25.4601 100.9 16.8826 89.9459 16.8826C87.9405 16.8826 86.0063 17.1732 84.1833 17.706C79.3296 7.27122 68.4832 0 55.871 0C39.2042 0 25.6121 12.6926 24.8777 28.6154Z" fill="url(#paint5_radial_11_59)"/>
</g>
<defs>
<radialGradient id="paint0_radial_11_59" cx="0" cy="0" r="1" gradientUnits="userSpaceOnUse" gradientTransform="translate(41.9333 110.738) scale(10.3484 9.99505)">
<stop stop-color="#FEFEFE"/>
<stop offset="0.156757" stop-color="#FEFEFE"/>
<stop offset="0.362006" stop-color="#FEFEFE"/>
<stop offset="1" stop-color="#D1CBC3"/>
</radialGradient>
<radialGradient id="paint1_radial_11_59" cx="0" cy="0" r="1" gradientUnits="userSpaceOnUse" gradientTransform="translate(96.6277 95.9913) scale(13.6339 13.1684)">
<stop stop-color="#FEFEFE"/>
<stop offset="0.156757" stop-color="#FEFEFE"/>
<stop offset="0.362006" stop-color="#FEFEFE"/>
<stop offset="1" stop-color="#D1CBC3"/>
</radialGradient>
<radialGradient id="paint2_radial_11_59" cx="0" cy="0" r="1" gradientUnits="userSpaceOnUse" gradientTransform="translate(63.386 91.5113) scale(5.90328 5.70171)">
<stop stop-color="#FEFEFE"/>
<stop offset="0.156757" stop-color="#FEFEFE"/>
<stop offset="0.362006" stop-color="#FEFEFE"/>
<stop offset="1" stop-color="#D1CBC3"/>
</radialGradient>
<radialGradient id="paint3_radial_11_59" cx="0" cy="0" r="1" gradientUnits="userSpaceOnUse" gradientTransform="translate(72.6626 122.125) scale(5.9033 5.70171)">
<stop stop-color="#FEFEFE"/>
<stop offset="0.156757" stop-color="#FEFEFE"/>
<stop offset="0.362006" stop-color="#FEFEFE"/>
<stop offset="1" stop-color="#D1CBC3"/>
</radialGradient>
<radialGradient id="paint4_radial_11_59" cx="0" cy="0" r="1" gradientUnits="userSpaceOnUse" gradientTransform="translate(23.9597 90.0177) scale(5.90328 5.70171)">
<stop stop-color="#FEFEFE"/>
<stop offset="0.156757" stop-color="#FEFEFE"/>
<stop offset="0.362006" stop-color="#FEFEFE"/>
<stop offset="1" stop-color="#D1CBC3"/>
</radialGradient>
<radialGradient id="paint5_radial_11_59" cx="0" cy="0" r="1" gradientUnits="userSpaceOnUse" gradientTransform="translate(45.2154 33.9455) rotate(30.0598) scale(71.8194 70.6194)">
<stop stop-color="#FEFEFE"/>
<stop offset="0.156757" stop-color="#FEFEFE"/>
<stop offset="0.362006" stop-color="#FEFEFE"/>
<stop offset="1" stop-color="#D1CBC3"/>
</radialGradient>
<clipPath id="clip0_11_59">
<rect width="128" height="128" fill="white"/>
</clipPath>
</defs>
</svg>
