<svg width="198" height="205" viewBox="0 0 198 205" fill="none" xmlns="http://www.w3.org/2000/svg">
<path d="M64.0626 162.159V164.981L62.252 162.989C62.0706 162.791 61.7612 162.776 61.5626 162.957C61.3639 163.139 61.3493 163.445 61.5306 163.647L64.0626 166.431V171.836C63.1692 171.991 62.3479 172.355 61.6493 172.876L57.7839 169.011L57.6053 165.267C57.5933 164.997 57.376 164.788 57.0946 164.801C56.828 164.815 56.6186 165.044 56.6319 165.313L56.7586 167.985L54.7173 165.943C54.3986 165.625 53.884 165.625 53.5666 165.943C53.2493 166.261 53.2493 166.775 53.5666 167.092L55.6252 169.151L52.9213 169.023C52.64 169.011 52.4239 169.217 52.4119 169.485C52.3999 169.755 52.6066 169.983 52.876 169.996L56.6506 170.175L60.4959 174.023C59.9466 174.749 59.5706 175.612 59.4226 176.551H54.0186L51.2319 174.017C51.0333 173.837 50.7253 173.852 50.5426 174.051C50.3613 174.251 50.3759 174.559 50.5759 174.74L52.568 176.551H49.6706C49.2212 176.551 48.8586 176.916 48.8586 177.363C48.8586 177.812 49.2212 178.177 49.6706 178.177H52.5466L50.5759 179.967C50.3759 180.149 50.3613 180.459 50.5426 180.656C50.6386 180.763 50.772 180.817 50.904 180.817C51.02 180.817 51.1399 180.775 51.2319 180.688L53.9959 178.177H59.4013C59.5253 179.117 59.8773 179.985 60.404 180.725L56.6506 184.477L52.876 184.659C52.6066 184.671 52.3999 184.899 52.4119 185.168C52.4239 185.429 52.6413 185.632 52.8986 185.632C52.9053 185.632 52.9146 185.631 52.9213 185.631L55.6252 185.503L53.5666 187.563C53.2493 187.88 53.2493 188.395 53.5666 188.711C53.7253 188.871 53.9346 188.949 54.1413 188.949C54.3493 188.949 54.5573 188.871 54.7173 188.711L56.7586 186.668L56.6319 189.341C56.6186 189.611 56.828 189.839 57.0946 189.852H57.1187C57.3787 189.852 57.5946 189.649 57.6053 189.388L57.7839 185.643L61.5239 181.903C62.2506 182.473 63.1172 182.871 64.0626 183.033V188.201L61.5306 190.987C61.3493 191.187 61.3639 191.495 61.5626 191.676C61.6559 191.761 61.7733 191.801 61.8906 191.801C62.0226 191.801 62.156 191.749 62.252 191.643L64.0626 189.649V192.549C64.0626 192.997 64.4266 193.361 64.876 193.361C65.3253 193.361 65.6893 192.997 65.6893 192.549V189.672L67.4813 191.643C67.5773 191.749 67.708 191.801 67.8413 191.801C67.9586 191.801 68.0746 191.761 68.1693 191.676C68.3679 191.495 68.384 191.187 68.2026 190.987L65.6893 188.224V183.083C66.7173 182.964 67.6613 182.568 68.4493 181.973L72.0893 185.613L72.2666 189.388C72.2799 189.649 72.4946 189.852 72.7533 189.852H72.7773C73.0453 189.839 73.2546 189.611 73.2413 189.341L73.1133 186.637L75.1187 188.643C75.2773 188.801 75.4853 188.881 75.6933 188.881C75.9013 188.881 76.108 188.801 76.268 188.643C76.584 188.327 76.584 187.813 76.268 187.495L74.2773 185.505L76.9506 185.631C76.9586 185.631 76.9653 185.632 76.9746 185.632C77.2333 185.632 77.4479 185.428 77.4613 185.168C77.4746 184.899 77.2653 184.671 76.9973 184.659L73.2533 184.48L69.5946 180.821C70.16 180.063 70.5413 179.16 70.6693 178.177H75.8106L78.5732 180.688C78.6692 180.775 78.7853 180.817 78.9026 180.817C79.0333 180.817 79.1666 180.763 79.2626 180.656C79.4439 180.459 79.4293 180.149 79.2306 179.967L77.2586 178.177H80.0613C80.5093 178.177 80.8746 177.812 80.8746 177.363C80.8746 176.916 80.5093 176.551 80.0613 176.551H77.2373L79.2306 174.74C79.4293 174.559 79.4439 174.251 79.2626 174.051C79.0826 173.852 78.7732 173.837 78.5732 174.017L75.7879 176.551H70.6466C70.4933 175.571 70.0906 174.673 69.5026 173.924L73.2533 170.173L76.9973 169.996C77.2653 169.983 77.4746 169.755 77.4613 169.485C77.4479 169.217 77.2266 169.011 76.9506 169.023L74.2773 169.149L76.268 167.16C76.584 166.843 76.584 166.328 76.268 166.011C75.9493 165.692 75.436 165.692 75.1187 166.011L73.1133 168.015L73.2413 165.313C73.2546 165.044 73.0453 164.815 72.7773 164.801C72.5013 164.791 72.2799 164.997 72.2666 165.267L72.0893 169.04L68.3253 172.803C67.5626 172.261 66.664 171.9 65.6893 171.788V166.408L68.2026 163.647C68.384 163.445 68.3679 163.139 68.1693 162.957C67.9706 162.776 67.6613 162.791 67.4813 162.989L65.6893 164.96V162.159C65.6893 161.709 65.3253 161.347 64.876 161.347C64.4266 161.347 64.0626 161.709 64.0626 162.159ZM65.6893 172.772C66.396 172.871 67.0546 173.125 67.6266 173.503L65.6893 175.44V172.772ZM62.3439 173.571C62.8532 173.216 63.4346 172.957 64.0626 172.824V175.291L62.3439 173.571ZM68.8053 174.62C69.2266 175.181 69.5253 175.837 69.6626 176.551H66.8746L68.8053 174.62ZM61.192 174.717L63.0266 176.551H60.4093C60.5373 175.877 60.8093 175.256 61.192 174.717ZM66.9493 178.177H69.6839C69.5706 178.892 69.2973 179.556 68.8986 180.125L66.9493 178.177ZM60.3866 178.177H62.952L61.1026 180.027C60.74 179.479 60.4933 178.851 60.3866 178.177ZM65.6893 179.213L67.752 181.279C67.152 181.705 66.4493 181.991 65.6893 182.097V179.213ZM62.2213 181.205L64.0626 179.364V182.045C63.3826 181.903 62.7586 181.609 62.2213 181.205Z" fill="url(#paint0_radial_1_529)"/>
<path d="M148.413 133.716V137.436L146.025 134.811C145.788 134.548 145.381 134.531 145.119 134.768C144.857 135.007 144.837 135.412 145.076 135.675L148.413 139.345V146.467C147.236 146.671 146.155 147.149 145.232 147.836L140.141 142.744L139.905 137.811C139.889 137.457 139.604 137.183 139.235 137.199C138.88 137.217 138.605 137.519 138.623 137.872L138.791 141.395L136.1 138.701C135.68 138.284 135.003 138.284 134.585 138.701C134.167 139.119 134.167 139.799 134.585 140.216L137.297 142.928L133.736 142.759C133.363 142.745 133.08 143.017 133.064 143.369C133.047 143.725 133.32 144.027 133.675 144.043L138.647 144.279L143.715 149.347C142.991 150.305 142.496 151.441 142.301 152.679H135.18L131.509 149.341C131.248 149.103 130.841 149.121 130.603 149.384C130.364 149.647 130.381 150.053 130.644 150.291L133.269 152.679H129.452C128.86 152.679 128.38 153.159 128.38 153.749C128.38 154.341 128.86 154.82 129.452 154.82H133.241L130.644 157.18C130.381 157.419 130.364 157.825 130.603 158.088C130.728 158.228 130.903 158.297 131.077 158.297C131.231 158.297 131.385 158.243 131.509 158.129L135.151 154.82H142.272C142.435 156.06 142.899 157.204 143.592 158.176L138.647 163.123L133.675 163.359C133.32 163.376 133.047 163.677 133.064 164.031C133.079 164.375 133.364 164.643 133.704 164.643C133.715 164.643 133.725 164.643 133.736 164.643L137.297 164.473L134.585 167.187C134.167 167.604 134.167 168.281 134.585 168.699C134.792 168.909 135.068 169.012 135.341 169.012C135.616 169.012 135.889 168.909 136.1 168.699L138.791 166.008L138.623 169.529C138.605 169.884 138.88 170.185 139.235 170.201C139.245 170.201 139.256 170.203 139.264 170.203C139.605 170.203 139.889 169.935 139.905 169.591L140.141 164.657L145.071 159.728C146.025 160.48 147.167 161.003 148.413 161.219V168.027L145.076 171.699C144.837 171.96 144.857 172.368 145.119 172.605C145.243 172.717 145.397 172.772 145.551 172.772C145.725 172.772 145.9 172.701 146.025 172.563L148.413 169.936V173.755C148.413 174.347 148.893 174.825 149.484 174.825C150.076 174.825 150.555 174.347 150.555 173.755V169.967L152.915 172.563C153.043 172.701 153.216 172.772 153.391 172.772C153.544 172.772 153.7 172.717 153.824 172.605C154.085 172.368 154.104 171.96 153.865 171.699L150.555 168.057V161.283C151.911 161.127 153.153 160.605 154.192 159.823L158.985 164.619L159.223 169.591C159.237 169.935 159.523 170.203 159.863 170.203C159.873 170.203 159.884 170.201 159.895 170.201C160.248 170.185 160.521 169.884 160.505 169.529L160.336 165.969L162.98 168.611C163.187 168.819 163.46 168.925 163.736 168.925C164.009 168.925 164.284 168.819 164.492 168.611C164.911 168.193 164.911 167.513 164.492 167.096L161.871 164.475L165.393 164.643C165.404 164.643 165.415 164.643 165.424 164.643C165.764 164.643 166.048 164.375 166.065 164.031C166.083 163.677 165.809 163.376 165.455 163.359L160.52 163.125L155.7 158.305C156.447 157.304 156.948 156.115 157.117 154.82H163.891L167.531 158.129C167.655 158.243 167.809 158.297 167.963 158.297C168.139 158.297 168.312 158.228 168.44 158.088C168.677 157.825 168.659 157.419 168.396 157.18L165.8 154.82H169.489C170.083 154.82 170.561 154.341 170.561 153.749C170.561 153.159 170.083 152.679 169.489 152.679H165.771L168.396 150.291C168.659 150.053 168.677 149.647 168.44 149.384C168.2 149.121 167.793 149.103 167.531 149.341L163.86 152.679H157.089C156.885 151.387 156.356 150.203 155.579 149.219L160.52 144.277L165.455 144.043C165.809 144.027 166.083 143.725 166.065 143.369C166.048 143.016 165.756 142.744 165.393 142.759L161.871 142.927L164.492 140.305C164.911 139.885 164.911 139.209 164.492 138.792C164.073 138.373 163.397 138.373 162.98 138.792L160.336 141.435L160.505 137.872C160.521 137.519 160.248 137.217 159.895 137.199C159.532 137.184 159.24 137.457 159.223 137.811L158.985 142.784L154.028 147.741C153.024 147.027 151.84 146.551 150.555 146.403V139.316L153.865 135.675C154.104 135.412 154.085 135.007 153.824 134.768C153.561 134.531 153.153 134.548 152.915 134.811L150.555 137.408V133.716C150.555 133.125 150.076 132.645 149.484 132.645C148.893 132.645 148.413 133.125 148.413 133.716ZM150.555 147.7C151.487 147.831 152.356 148.164 153.108 148.661L150.555 151.216V147.7ZM146.148 148.753C146.82 148.284 147.585 147.943 148.413 147.768V151.017L146.148 148.753ZM154.664 150.135C155.217 150.875 155.611 151.739 155.791 152.679H152.119L154.664 150.135ZM144.631 150.261L147.047 152.679H143.6C143.768 151.791 144.127 150.973 144.631 150.261ZM152.217 154.82H155.819C155.669 155.763 155.311 156.637 154.784 157.389L152.217 154.82ZM143.571 154.82H146.951L144.513 157.256C144.036 156.535 143.711 155.708 143.571 154.82ZM150.555 156.185L153.275 158.907C152.484 159.468 151.557 159.844 150.555 159.987V156.185ZM145.987 158.811L148.413 156.384V159.917C147.517 159.729 146.696 159.343 145.987 158.811Z" fill="url(#paint1_radial_1_529)"/>
<path d="M97.5921 137.893V139.503L96.5588 138.367C96.4548 138.253 96.2788 138.244 96.1654 138.348C96.0521 138.452 96.0441 138.627 96.1468 138.741L97.5921 140.331V143.413C97.0828 143.501 96.6134 143.709 96.2148 144.007L94.0107 141.803L93.9081 139.665C93.9015 139.512 93.7774 139.393 93.6174 139.401C93.4641 139.408 93.3441 139.539 93.3534 139.693L93.4268 141.217L92.2615 140.052C92.0788 139.871 91.7854 139.871 91.6041 140.052C91.4241 140.233 91.4241 140.525 91.6041 140.707L92.7788 141.881L91.2375 141.808C91.0761 141.803 90.9535 141.919 90.9455 142.072C90.9388 142.225 91.0574 142.357 91.2108 142.363L93.3641 142.465L95.5575 144.66C95.2455 145.075 95.0295 145.568 94.9455 146.103H91.8628L90.2734 144.657C90.1588 144.555 89.9841 144.563 89.8801 144.676C89.7761 144.791 89.7854 144.965 89.8988 145.069L91.0361 146.103H89.3814C89.1268 146.103 88.9175 146.311 88.9175 146.567C88.9175 146.823 89.1268 147.029 89.3814 147.029H91.0228L89.8988 148.052C89.7854 148.156 89.7761 148.332 89.8801 148.445C89.9361 148.505 90.0108 148.537 90.0854 148.537C90.1521 148.537 90.2188 148.513 90.2734 148.464L91.8494 147.029H94.9321C95.0028 147.567 95.2041 148.063 95.5055 148.484L93.3641 150.625L91.2108 150.728C91.0574 150.735 90.9388 150.867 90.9455 151.019C90.9535 151.168 91.0761 151.284 91.2241 151.284H91.2375L92.7788 151.209L91.6041 152.384C91.4241 152.565 91.4241 152.859 91.6041 153.04C91.6961 153.131 91.8135 153.176 91.9321 153.176C92.0508 153.176 92.1695 153.131 92.2615 153.04L93.4268 151.875L93.3534 153.399C93.3441 153.553 93.4641 153.684 93.6174 153.689C93.6228 153.689 93.6267 153.691 93.6321 153.691C93.7787 153.691 93.9015 153.575 93.9081 153.425L94.0107 151.291L96.1441 149.155C96.5588 149.481 97.0521 149.707 97.5921 149.8V152.749L96.1468 154.339C96.0441 154.452 96.0521 154.628 96.1654 154.729C96.2188 154.78 96.2868 154.803 96.3534 154.803C96.4294 154.803 96.5041 154.773 96.5588 154.712L97.5921 153.576V155.229C97.5921 155.487 97.7987 155.692 98.0561 155.692C98.3121 155.692 98.5188 155.487 98.5188 155.229V153.589L99.5414 154.712C99.5961 154.773 99.6721 154.803 99.7481 154.803C99.8135 154.803 99.8801 154.78 99.9334 154.729C100.048 154.628 100.056 154.452 99.9535 154.339L98.5188 152.763V149.829C99.1068 149.763 99.6441 149.535 100.093 149.197L102.171 151.273L102.273 153.425C102.279 153.575 102.403 153.691 102.549 153.691C102.555 153.691 102.559 153.689 102.564 153.689C102.717 153.684 102.835 153.553 102.828 153.399L102.753 151.857L103.899 153.001C103.989 153.092 104.108 153.136 104.227 153.136C104.345 153.136 104.464 153.092 104.555 153.001C104.736 152.82 104.736 152.527 104.555 152.347L103.42 151.211L104.944 151.284H104.957C105.105 151.284 105.228 151.168 105.235 151.019C105.243 150.867 105.124 150.735 104.971 150.728L102.835 150.627L100.748 148.539C101.071 148.105 101.288 147.591 101.36 147.029H104.293L105.871 148.464C105.923 148.513 105.992 148.537 106.057 148.537C106.133 148.537 106.208 148.505 106.263 148.445C106.365 148.332 106.359 148.156 106.244 148.052L105.12 147.029H106.717C106.975 147.029 107.18 146.823 107.18 146.567C107.18 146.311 106.975 146.103 106.717 146.103H105.107L106.244 145.069C106.359 144.965 106.365 144.791 106.263 144.676C106.16 144.563 105.983 144.555 105.871 144.657L104.281 146.103H101.348C101.261 145.544 101.032 145.032 100.696 144.605L102.835 142.465L104.971 142.363C105.124 142.357 105.243 142.225 105.235 142.072C105.228 141.919 105.103 141.803 104.944 141.808L103.42 141.88L104.555 140.747C104.736 140.565 104.736 140.271 104.555 140.091C104.372 139.909 104.08 139.909 103.899 140.091L102.753 141.235L102.828 139.693C102.835 139.539 102.717 139.408 102.564 139.401C102.405 139.393 102.28 139.512 102.273 139.665L102.171 141.819L100.024 143.965C99.5881 143.655 99.0761 143.449 98.5188 143.385V140.317L99.9535 138.741C100.056 138.627 100.048 138.452 99.9334 138.348C99.8201 138.244 99.6441 138.253 99.5414 138.367L98.5188 139.491V137.893C98.5188 137.636 98.3121 137.429 98.0561 137.429C97.7987 137.429 97.5921 137.636 97.5921 137.893ZM98.5188 143.948C98.9241 144.003 99.2987 144.148 99.6254 144.364L98.5188 145.469V143.948ZM96.6121 144.404C96.9028 144.2 97.2321 144.052 97.5921 143.977V145.384L96.6121 144.404ZM100.299 145.001C100.537 145.321 100.708 145.695 100.787 146.103H99.1974L100.299 145.001ZM95.9548 145.057L97.0001 146.103H95.5081C95.5801 145.719 95.7361 145.364 95.9548 145.057ZM99.2375 147.029H100.797C100.733 147.439 100.579 147.817 100.351 148.143L99.2375 147.029ZM95.4948 147.029H96.9574L95.9041 148.085C95.6975 147.773 95.5561 147.415 95.4948 147.029ZM98.5188 147.623L99.6961 148.8C99.3548 149.043 98.9535 149.205 98.5188 149.267V147.623ZM96.5414 148.759L97.5921 147.708V149.237C97.2055 149.156 96.8481 148.988 96.5414 148.759Z" fill="url(#paint2_radial_1_529)"/>
<path d="M111.943 186.921V188.533L110.909 187.395C110.804 187.283 110.629 187.275 110.516 187.377C110.403 187.48 110.393 187.656 110.497 187.769L111.943 189.36V192.443C111.432 192.531 110.963 192.737 110.565 193.035L108.359 190.831L108.26 188.695C108.251 188.541 108.128 188.421 107.968 188.429C107.815 188.437 107.696 188.568 107.703 188.721L107.775 190.247L106.609 189.08C106.428 188.9 106.136 188.9 105.955 189.08C105.773 189.261 105.773 189.555 105.955 189.735L107.129 190.911L105.587 190.837C105.427 190.832 105.304 190.949 105.296 191.103C105.288 191.256 105.407 191.385 105.56 191.393L107.713 191.496L109.907 193.689C109.593 194.104 109.379 194.596 109.296 195.133H106.212L104.623 193.687C104.509 193.585 104.333 193.592 104.231 193.707C104.127 193.819 104.135 193.995 104.249 194.099L105.385 195.133H103.732C103.475 195.133 103.269 195.339 103.269 195.596C103.269 195.852 103.475 196.059 103.732 196.059H105.372L104.249 197.081C104.135 197.185 104.127 197.36 104.231 197.475C104.285 197.535 104.36 197.565 104.436 197.565C104.503 197.565 104.569 197.541 104.623 197.493L106.199 196.059H109.283C109.353 196.597 109.555 197.092 109.855 197.512L107.713 199.655L105.56 199.756C105.407 199.764 105.288 199.895 105.296 200.048C105.304 200.197 105.427 200.312 105.572 200.312H105.587L107.129 200.24L105.955 201.413C105.773 201.595 105.773 201.888 105.955 202.069C106.044 202.16 106.164 202.204 106.283 202.204C106.401 202.204 106.52 202.16 106.609 202.069L107.775 200.904L107.703 202.429C107.696 202.583 107.815 202.712 107.968 202.72H107.981C108.128 202.72 108.251 202.604 108.26 202.455L108.359 200.319L110.495 198.184C110.908 198.511 111.403 198.736 111.943 198.831V201.779L110.497 203.367C110.393 203.48 110.403 203.657 110.516 203.761C110.569 203.809 110.636 203.832 110.703 203.832C110.779 203.832 110.853 203.801 110.909 203.74L111.943 202.604V204.257C111.943 204.515 112.149 204.721 112.407 204.721C112.661 204.721 112.869 204.515 112.869 204.257V202.617L113.892 203.74C113.947 203.801 114.021 203.832 114.097 203.832C114.165 203.832 114.231 203.809 114.284 203.761C114.397 203.657 114.405 203.48 114.303 203.367L112.869 201.791V198.857C113.456 198.791 113.996 198.565 114.444 198.225L116.519 200.303L116.623 202.455C116.629 202.604 116.753 202.72 116.9 202.72H116.912C117.067 202.712 117.185 202.583 117.176 202.429L117.104 200.887L118.248 202.032C118.339 202.12 118.459 202.167 118.577 202.167C118.696 202.167 118.813 202.12 118.904 202.032C119.085 201.849 119.085 201.556 118.904 201.375L117.768 200.24L119.295 200.312H119.308C119.455 200.312 119.577 200.197 119.585 200.048C119.592 199.895 119.475 199.764 119.32 199.756L117.185 199.655L115.099 197.569C115.421 197.136 115.637 196.62 115.712 196.059H118.643L120.22 197.493C120.273 197.541 120.34 197.565 120.407 197.565C120.483 197.565 120.557 197.535 120.613 197.475C120.717 197.36 120.708 197.185 120.595 197.081L119.469 196.059H121.068C121.324 196.059 121.532 195.852 121.532 195.596C121.532 195.339 121.324 195.133 121.068 195.133H119.457L120.595 194.099C120.708 193.995 120.717 193.819 120.613 193.707C120.509 193.592 120.333 193.585 120.22 193.687L118.629 195.133H115.699C115.611 194.572 115.38 194.061 115.044 193.633L117.185 191.495L119.32 191.393C119.475 191.385 119.592 191.256 119.585 191.103C119.577 190.949 119.452 190.831 119.295 190.837L117.769 190.911L118.904 189.775C119.085 189.593 119.085 189.301 118.904 189.12C118.723 188.939 118.429 188.939 118.248 189.12L117.104 190.263L117.176 188.721C117.185 188.568 117.067 188.437 116.912 188.429C116.756 188.424 116.629 188.541 116.623 188.695L116.519 190.848L114.373 192.995C113.939 192.685 113.425 192.48 112.869 192.415V189.347L114.303 187.769C114.405 187.656 114.397 187.48 114.284 187.377C114.171 187.275 113.996 187.283 113.892 187.395L112.869 188.52V186.921C112.869 186.667 112.661 186.459 112.407 186.459C112.149 186.459 111.943 186.667 111.943 186.921ZM112.869 192.976C113.273 193.035 113.648 193.177 113.975 193.393L112.869 194.499V192.976ZM110.96 193.432C111.252 193.229 111.584 193.081 111.943 193.007V194.413L110.96 193.432ZM114.648 194.031C114.888 194.352 115.059 194.725 115.137 195.133H113.547L114.648 194.031ZM110.304 194.085L111.351 195.133H109.856C109.931 194.749 110.085 194.393 110.304 194.085ZM113.589 196.059H115.148C115.084 196.467 114.929 196.847 114.701 197.172L113.589 196.059ZM109.844 196.059H111.308L110.253 197.115C110.048 196.803 109.905 196.444 109.844 196.059ZM112.869 196.651L114.047 197.829C113.705 198.072 113.303 198.236 112.869 198.296V196.651ZM110.891 197.787L111.943 196.737V198.267C111.553 198.184 111.199 198.016 110.891 197.787Z" fill="url(#paint3_radial_1_529)"/>
<path d="M36.6041 135.501V137.112L35.5708 135.975C35.4681 135.863 35.2921 135.853 35.1788 135.956C35.0655 136.059 35.0561 136.236 35.1601 136.348L36.6041 137.939V141.023C36.0948 141.109 35.6254 141.317 35.2281 141.615L33.0214 139.409L32.9215 137.273C32.9135 137.121 32.7908 137.001 32.6308 137.008C32.4774 137.017 32.3588 137.147 32.3655 137.301L32.4374 138.825L31.2721 137.66C31.0908 137.479 30.7988 137.479 30.6174 137.66C30.4361 137.841 30.4361 138.133 30.6174 138.315L31.7921 139.489L30.2494 139.417C30.0881 139.409 29.9667 139.527 29.9587 139.681C29.9507 139.835 30.0681 139.965 30.2227 139.972L32.3761 140.075L34.5694 142.268C34.2561 142.683 34.0414 143.175 33.9574 143.712H30.8748L29.2855 142.267C29.1721 142.163 28.9961 142.172 28.8921 142.285C28.7894 142.399 28.7974 142.575 28.9121 142.679L30.0481 143.712H28.3948C28.1374 143.712 27.9321 143.919 27.9321 144.176C27.9321 144.431 28.1374 144.639 28.3948 144.639H30.0347L28.9121 145.66C28.7974 145.764 28.7894 145.94 28.8921 146.053C28.9468 146.115 29.0227 146.144 29.0974 146.144C29.1654 146.144 29.2321 146.121 29.2855 146.072L30.8614 144.639H33.9455C34.0161 145.176 34.2174 145.671 34.5174 146.092L32.3761 148.233L30.2227 148.335C30.0681 148.344 29.9507 148.475 29.9587 148.628C29.9654 148.776 30.0894 148.892 30.2361 148.892H30.2494L31.7921 148.817L30.6174 149.993C30.4361 150.175 30.4361 150.468 30.6174 150.649C30.7068 150.737 30.8254 150.783 30.9441 150.783C31.0641 150.783 31.1828 150.737 31.2721 150.649L32.4374 149.483L32.3655 151.008C32.3588 151.161 32.4774 151.292 32.6308 151.299C32.6348 151.299 32.6388 151.299 32.6441 151.299C32.7908 151.299 32.9135 151.184 32.9215 151.035L33.0214 148.897L35.1561 146.764C35.5708 147.089 36.0654 147.316 36.6041 147.409V150.357L35.1601 151.947C35.0561 152.06 35.0655 152.235 35.1788 152.34C35.2321 152.388 35.2988 152.412 35.3641 152.412C35.4401 152.412 35.5161 152.381 35.5708 152.32L36.6041 151.184V152.837C36.6041 153.093 36.8121 153.301 37.0681 153.301C37.3241 153.301 37.5321 153.093 37.5321 152.837V151.196L38.5535 152.32C38.6081 152.381 38.6841 152.412 38.7588 152.412C38.8281 152.412 38.8934 152.388 38.9468 152.34C39.0601 152.235 39.0681 152.06 38.9654 151.947L37.5321 150.369V147.437C38.1188 147.369 38.6574 147.145 39.1068 146.804L41.1815 148.881L41.2855 151.035C41.2921 151.184 41.4161 151.299 41.5627 151.299C41.5667 151.299 41.5721 151.299 41.5761 151.299C41.7294 151.292 41.8481 151.161 41.8401 151.008L41.7681 149.465L42.9108 150.609C43.0015 150.7 43.1201 150.747 43.2388 150.747C43.3574 150.747 43.4761 150.7 43.5668 150.609C43.7481 150.428 43.7481 150.135 43.5668 149.953L42.4307 148.819L43.9574 148.892H43.9708C44.1175 148.892 44.2401 148.776 44.2481 148.628C44.2548 148.475 44.1361 148.344 43.9827 148.335L41.8468 148.235L39.7615 146.147C40.0841 145.715 40.3001 145.2 40.3748 144.639H43.3054L44.8828 146.072C44.9361 146.121 45.0028 146.144 45.0681 146.144C45.1441 146.144 45.2201 146.115 45.2747 146.053C45.3801 145.94 45.3694 145.764 45.2574 145.66L44.1321 144.639H45.7308C45.9868 144.639 46.1947 144.431 46.1947 144.176C46.1947 143.919 45.9868 143.712 45.7308 143.712H44.1201L45.2574 142.679C45.3694 142.575 45.3801 142.399 45.2747 142.285C45.1721 142.172 44.9961 142.163 44.8828 142.267L43.2921 143.712H40.3614C40.2734 143.152 40.0428 142.639 39.7068 142.213L41.8468 140.075L43.9827 139.972C44.1361 139.965 44.2548 139.835 44.2481 139.681C44.2401 139.527 44.1148 139.409 43.9574 139.417L42.4307 139.489L43.5668 138.353C43.7481 138.173 43.7481 137.88 43.5668 137.7C43.3855 137.517 43.0921 137.517 42.9108 137.7L41.7681 138.843L41.8401 137.301C41.8481 137.147 41.7294 137.017 41.5761 137.008C41.4188 137.003 41.2921 137.121 41.2855 137.273L41.1815 139.427L39.0361 141.575C38.6015 141.264 38.0881 141.059 37.5321 140.993V137.925L38.9654 136.348C39.0681 136.236 39.0601 136.059 38.9468 135.956C38.8334 135.853 38.6575 135.863 38.5535 135.975L37.5321 137.099V135.501C37.5321 135.244 37.3241 135.039 37.0681 135.039C36.8121 135.039 36.6041 135.244 36.6041 135.501ZM37.5321 141.556C37.9361 141.612 38.3121 141.757 38.6361 141.973L37.5321 143.079V141.556ZM35.6241 142.011C35.9134 141.808 36.2468 141.661 36.6041 141.585V142.992L35.6241 142.011ZM39.3094 142.609C39.5507 142.929 39.7214 143.305 39.7987 143.712H38.2095L39.3094 142.609ZM34.9654 142.665L36.0134 143.712H34.5201C34.5921 143.328 34.7494 142.972 34.9654 142.665ZM38.2521 144.639H39.8121C39.7468 145.047 39.5908 145.425 39.3641 145.752L38.2521 144.639ZM34.5081 144.639H35.9721L34.9161 145.695C34.7108 145.381 34.5681 145.023 34.5081 144.639ZM37.5321 145.231L38.7095 146.409C38.3681 146.651 37.9655 146.815 37.5321 146.875V145.231ZM35.5535 146.367L36.6041 145.316V146.845C36.2161 146.764 35.8615 146.596 35.5535 146.367Z" fill="url(#paint4_radial_1_529)"/>
<path d="M38.4827 45.8293C17.1747 46.1573 0 63.5213 0 84.9093C0 105.797 16.384 122.859 37.004 123.947C37.2893 123.98 37.5787 124.003 37.872 124.003H166.761C166.788 124.003 166.812 124 166.839 123.999C166.889 124 166.94 124.003 166.991 124.003C183.691 124.003 197.228 110.464 197.228 93.7653C197.228 77.8253 184.889 64.7747 169.244 63.6213C169.616 61.7107 169.817 59.7387 169.817 57.7213C169.817 40.776 156.08 27.0386 139.135 27.0386C136.033 27.0386 133.041 27.504 130.221 28.3573C122.713 11.6453 105.935 -1.52588e-05 86.4254 -1.52588e-05C60.644 -1.52588e-05 39.6187 20.328 38.4827 45.8293Z" fill="url(#paint5_radial_1_529)"/>
<defs>
<radialGradient id="paint0_radial_1_529" cx="0" cy="0" r="1" gradientUnits="userSpaceOnUse" gradientTransform="translate(64.8656 177.354) scale(16.0077 16.0077)">
<stop stop-color="#FEFEFE"/>
<stop offset="0.156757" stop-color="#FEFEFE"/>
<stop offset="0.362006" stop-color="#FEFEFE"/>
<stop offset="1" stop-color="#D1CBC3"/>
</radialGradient>
<radialGradient id="paint1_radial_1_529" cx="0" cy="0" r="1" gradientUnits="userSpaceOnUse" gradientTransform="translate(149.471 153.736) scale(21.09 21.09)">
<stop stop-color="#FEFEFE"/>
<stop offset="0.156757" stop-color="#FEFEFE"/>
<stop offset="0.362006" stop-color="#FEFEFE"/>
<stop offset="1" stop-color="#D1CBC3"/>
</radialGradient>
<radialGradient id="paint2_radial_1_529" cx="0" cy="0" r="1" gradientUnits="userSpaceOnUse" gradientTransform="translate(98.0501 146.561) scale(9.13163 9.13165)">
<stop stop-color="#FEFEFE"/>
<stop offset="0.156757" stop-color="#FEFEFE"/>
<stop offset="0.362006" stop-color="#FEFEFE"/>
<stop offset="1" stop-color="#D1CBC3"/>
</radialGradient>
<radialGradient id="paint3_radial_1_529" cx="0" cy="0" r="1" gradientUnits="userSpaceOnUse" gradientTransform="translate(112.4 195.59) scale(9.13167 9.13165)">
<stop stop-color="#FEFEFE"/>
<stop offset="0.156757" stop-color="#FEFEFE"/>
<stop offset="0.362006" stop-color="#FEFEFE"/>
<stop offset="1" stop-color="#D1CBC3"/>
</radialGradient>
<radialGradient id="paint4_radial_1_529" cx="0" cy="0" r="1" gradientUnits="userSpaceOnUse" gradientTransform="translate(37.0626 144.169) scale(9.13163 9.13165)">
<stop stop-color="#FEFEFE"/>
<stop offset="0.156757" stop-color="#FEFEFE"/>
<stop offset="0.362006" stop-color="#FEFEFE"/>
<stop offset="1" stop-color="#D1CBC3"/>
</radialGradient>
<radialGradient id="paint5_radial_1_529" cx="0" cy="0" r="1" gradientUnits="userSpaceOnUse" gradientTransform="translate(69.9426 54.3659) rotate(30.9302) scale(112.094 112.094)">
<stop stop-color="#FEFEFE"/>
<stop offset="0.156757" stop-color="#FEFEFE"/>
<stop offset="0.362006" stop-color="#FEFEFE"/>
<stop offset="1" stop-color="#D1CBC3"/>
</radialGradient>
</defs>
</svg>
