<svg width="128" height="128" viewBox="0 0 128 128" fill="none" xmlns="http://www.w3.org/2000/svg">
<g clip-path="url(#clip0_11_27)">
<path d="M12.9563 92.2947C12.9563 95.2608 15.3101 97.6657 18.2137 97.6657C21.1172 97.6657 23.4704 95.2608 23.4704 92.2947C23.4704 89.3279 18.2137 80.1202 18.2137 80.1202C18.2137 80.1202 12.9563 89.3279 12.9563 92.2947Z" fill="url(#paint0_radial_11_27)"/>
<path d="M60.4724 122.516C60.4724 125.483 62.8263 127.887 65.7296 127.887C68.6335 127.887 70.9874 125.483 70.9874 122.516C70.9874 119.549 65.7296 110.342 65.7296 110.342C65.7296 110.342 60.4724 119.549 60.4724 122.516Z" fill="url(#paint1_radial_11_27)"/>
<path d="M89.3207 90.7387C89.3207 92.273 90.5378 93.517 92.0401 93.517C93.5414 93.517 94.7591 92.273 94.7591 90.7387C94.7591 89.2049 92.0401 84.4418 92.0401 84.4418C92.0401 84.4418 89.3207 89.2049 89.3207 90.7387Z" fill="url(#paint2_radial_11_27)"/>
<path d="M50.3497 57.6482L35.4315 84.1536H43.6727L34.1342 115.298L63.9691 78.1902H53.7051L65.267 57.6482H50.3497Z" fill="url(#paint3_linear_11_27)"/>
<path d="M80.7273 10.4092C79.7136 10.0952 78.6392 9.9245 77.5246 9.9245C71.437 9.9245 66.5014 14.9662 66.5014 21.1863C66.5014 21.9273 66.5736 22.6514 66.7075 23.3518C61.0864 23.7751 56.6536 28.5656 56.6536 34.4163C56.6536 40.5455 61.5176 45.5148 67.5168 45.5148C67.5346 45.5148 67.5531 45.5133 67.5715 45.5133C67.5802 45.5133 67.59 45.5148 67.5986 45.5148H113.905C114.011 45.5148 114.115 45.5067 114.218 45.4941C121.624 45.0951 127.512 38.8329 127.512 31.1655C127.512 23.3163 121.341 16.9418 113.686 16.8214C113.278 7.4613 105.724 0 96.4616 0C89.4525 0 83.4251 4.27479 80.7273 10.4092Z" fill="url(#paint4_radial_11_27)"/>
<path d="M20.872 27.5845C9.31433 27.7656 0 37.3879 0 49.2385C0 60.8133 8.88624 70.2682 20.0693 70.8694C20.224 70.8888 20.381 70.9004 20.5407 70.9004H90.4466C90.4613 70.9004 90.4749 70.8993 90.4879 70.8993C90.5155 70.8993 90.5432 70.9004 90.5714 70.9004C99.6279 70.9004 106.971 63.3994 106.971 54.1465C106.971 45.3132 100.279 38.0824 91.7928 37.4425C91.9951 36.3846 92.1036 35.2926 92.1036 34.1733C92.1036 24.7837 84.653 17.1724 75.462 17.1724C73.7806 17.1724 72.1578 17.4295 70.6273 17.9031C66.5562 8.64275 57.4563 2.18994 46.8755 2.18994C32.8917 2.18994 21.4866 13.4539 20.872 27.5845Z" fill="url(#paint5_radial_11_27)"/>
</g>
<defs>
<radialGradient id="paint0_radial_11_27" cx="0" cy="0" r="1" gradientUnits="userSpaceOnUse" gradientTransform="translate(18.2137 88.893) scale(7.11935 7.27345)">
<stop stop-color="#7DBAC7"/>
<stop offset="0.7114" stop-color="#7DBAC7"/>
<stop offset="1" stop-color="#59A8B2"/>
</radialGradient>
<radialGradient id="paint1_radial_11_27" cx="0" cy="0" r="1" gradientUnits="userSpaceOnUse" gradientTransform="translate(65.7296 119.114) scale(7.11935 7.27345)">
<stop stop-color="#7DBAC7"/>
<stop offset="0.7114" stop-color="#7DBAC7"/>
<stop offset="1" stop-color="#59A8B2"/>
</radialGradient>
<radialGradient id="paint2_radial_11_27" cx="0" cy="0" r="1" gradientUnits="userSpaceOnUse" gradientTransform="translate(92.0401 88.9794) scale(3.6824 3.76213)">
<stop stop-color="#7DBAC7"/>
<stop offset="0.7114" stop-color="#7DBAC7"/>
<stop offset="1" stop-color="#59A8B2"/>
</radialGradient>
<linearGradient id="paint3_linear_11_27" x1="34.1344" y1="86.4726" x2="65.2665" y2="86.4726" gradientUnits="userSpaceOnUse">
<stop stop-color="#FABB41"/>
<stop offset="0.357364" stop-color="#FABB41"/>
<stop offset="1" stop-color="#F7821A"/>
</linearGradient>
<radialGradient id="paint4_radial_11_27" cx="0" cy="0" r="1" gradientUnits="userSpaceOnUse" gradientTransform="translate(97.1417 -1.42089) rotate(127.425) scale(31.256 31.0882)">
<stop stop-color="#D1CBC3"/>
<stop offset="0.243404" stop-color="#D1CBC3"/>
<stop offset="1" stop-color="#AAA49D"/>
</radialGradient>
<radialGradient id="paint5_radial_11_27" cx="0" cy="0" r="1" gradientUnits="userSpaceOnUse" gradientTransform="translate(37.9345 32.3144) rotate(31.4739) scale(61.1472 61.7567)">
<stop stop-color="#FEFEFE"/>
<stop offset="0.156757" stop-color="#FEFEFE"/>
<stop offset="0.362006" stop-color="#FEFEFE"/>
<stop offset="1" stop-color="#D1CBC3"/>
</radialGradient>
<clipPath id="clip0_11_27">
<rect width="128" height="128" fill="white"/>
</clipPath>
</defs>
</svg>
