<svg width="128" height="128" viewBox="0 0 128 128" fill="none" xmlns="http://www.w3.org/2000/svg">
<g clip-path="url(#clip0_11_55)">
<path d="M64.877 24.5549C64.877 13.3303 69.4452 4.23145 75.0809 4.23145C80.7155 4.23145 85.2842 13.3303 85.2842 24.5549C85.2842 35.7779 80.7155 44.8769 75.0809 44.8769H20.7302" stroke="url(#paint0_linear_11_55)" stroke-width="8" stroke-miterlimit="10" stroke-linecap="round"/>
<path d="M88.9967 104.763C88.9967 115.089 93.1995 123.46 98.3837 123.46C103.569 123.46 107.771 115.089 107.771 104.763C107.771 94.4369 103.569 86.0657 98.3837 86.0657H48.3813" stroke="url(#paint1_linear_11_55)" stroke-width="8" stroke-miterlimit="10" stroke-linecap="round"/>
<path d="M98.9918 38.9158C98.9918 24.2511 104.962 12.3608 112.325 12.3608C119.689 12.3608 125.657 24.2511 125.657 38.9158C125.657 53.5818 119.689 65.4721 112.325 65.4721H2.12451" stroke="url(#paint2_linear_11_55)" stroke-width="8" stroke-miterlimit="10" stroke-linecap="round"/>
</g>
<defs>
<linearGradient id="paint0_linear_11_55" x1="18.6057" y1="-1419.76" x2="87.4087" y2="-1419.76" gradientUnits="userSpaceOnUse">
<stop stop-color="#D1CBC3"/>
<stop offset="0.156757" stop-color="#D1CBC3"/>
<stop offset="0.362006" stop-color="#D1CBC3"/>
<stop offset="1" stop-color="#AAA49D"/>
</linearGradient>
<linearGradient id="paint1_linear_11_55" x1="70.3767" y1="-1419.76" x2="134.016" y2="-1419.76" gradientUnits="userSpaceOnUse">
<stop stop-color="#D1CBC3"/>
<stop offset="0.156757" stop-color="#D1CBC3"/>
<stop offset="0.362006" stop-color="#D1CBC3"/>
<stop offset="1" stop-color="#AAA49D"/>
</linearGradient>
<linearGradient id="paint2_linear_11_55" x1="34.115" y1="-1419.76" x2="161.897" y2="-1419.76" gradientUnits="userSpaceOnUse">
<stop stop-color="#D1CBC3"/>
<stop offset="0.156757" stop-color="#D1CBC3"/>
<stop offset="0.362006" stop-color="#D1CBC3"/>
<stop offset="1" stop-color="#AAA49D"/>
</linearGradient>
<clipPath id="clip0_11_55">
<rect width="128" height="128" fill="white"/>
</clipPath>
</defs>
</svg>
